<svg xmlns="http://www.w3.org/2000/svg" xmlns:xlink="http://www.w3.org/1999/xlink" viewBox="0 0 355.57 200"><defs><style>.cls-1{isolation:isolate;}.cls-2{fill:#54e7d5;}.cls-11,.cls-3,.cls-4,.cls-7,.cls-9{mix-blend-mode:multiply;}.cls-3{fill:url(#linear-gradient);}.cls-4{fill:url(#linear-gradient-2);}.cls-5{fill:#ffeb3c;}.cls-6{fill:#ff6b6b;}.cls-7{fill:url(#linear-gradient-3);}.cls-8{fill:#00bcd5;}.cls-9{fill:url(#linear-gradient-4);}.cls-10{fill:#c7f464;}.cls-11{fill:url(#linear-gradient-5);}.cls-12{fill:#607d8b;}.cls-13{mix-blend-mode:screen;}.cls-14{fill:#8f8f8f;}.cls-15{fill:url(#linear-gradient-6);}.cls-16{fill:url(#linear-gradient-7);}.cls-17{fill:url(#linear-gradient-8);}.cls-18{fill:url(#linear-gradient-9);}.cls-19{fill:url(#linear-gradient-10);}.cls-20{fill:url(#linear-gradient-11);}.cls-21{fill:gray;}.cls-22{fill:#a6a6a6;}.cls-23{fill:#a8a8a8;}</style><linearGradient id="linear-gradient" x1="38.9" y1="238.89" x2="316.68" y2="-38.89" gradientUnits="userSpaceOnUse"><stop offset="0.52" stop-color="#807a60"/><stop offset="0.52" stop-color="#817c62"/><stop offset="0.52" stop-color="#9e9a86"/><stop offset="0.52" stop-color="#b7b4a5"/><stop offset="0.53" stop-color="#cdcbc1"/><stop offset="0.53" stop-color="#deddd7"/><stop offset="0.53" stop-color="#ecebe8"/><stop offset="0.54" stop-color="#f5f5f3"/><stop offset="0.55" stop-color="#fbfafa"/><stop offset="0.57" stop-color="#fcfcfc"/><stop offset="1" stop-color="#fff"/></linearGradient><linearGradient id="linear-gradient-2" x1="38.9" y1="-38.89" x2="316.68" y2="238.89" gradientUnits="userSpaceOnUse"><stop offset="0.57" stop-color="#4f403b"/><stop offset="0.57" stop-color="#716561"/><stop offset="0.57" stop-color="#918885"/><stop offset="0.57" stop-color="#aea8a5"/><stop offset="0.58" stop-color="#c7c2c1"/><stop offset="0.58" stop-color="#dad8d7"/><stop offset="0.59" stop-color="#eae8e8"/><stop offset="0.59" stop-color="#f4f4f3"/><stop offset="0.6" stop-color="#fafafa"/><stop offset="0.62" stop-color="#fcfcfc"/><stop offset="1" stop-color="#fff"/></linearGradient><linearGradient id="linear-gradient-3" x1="79.03" y1="166.77" x2="168.69" y2="77.11" gradientUnits="userSpaceOnUse"><stop offset="0.82" stop-color="#607580"/><stop offset="0.82" stop-color="#7c8d96"/><stop offset="0.84" stop-color="#9facb2"/><stop offset="0.85" stop-color="#bdc6ca"/><stop offset="0.87" stop-color="#d5dbde"/><stop offset="0.89" stop-color="#e8ebed"/><stop offset="0.91" stop-color="#f5f6f7"/><stop offset="0.94" stop-color="#fdfdfd"/><stop offset="1" stop-color="#fff"/></linearGradient><linearGradient id="linear-gradient-4" x1="72" y1="159.74" x2="147.6" y2="84.14" gradientUnits="userSpaceOnUse"><stop offset="0" stop-color="#768060"/><stop offset="0" stop-color="#788162"/><stop offset="0.01" stop-color="#979e86"/><stop offset="0.01" stop-color="#b2b7a5"/><stop offset="0.02" stop-color="#c9cdc1"/><stop offset="0.03" stop-color="#dcded7"/><stop offset="0.03" stop-color="#eaece8"/><stop offset="0.05" stop-color="#f5f5f3"/><stop offset="0.06" stop-color="#fafbfa"/><stop offset="0.1" stop-color="#fcfcfc"/><stop offset="1" stop-color="#fff"/></linearGradient><linearGradient id="linear-gradient-5" x1="81.13" y1="21.35" x2="189.67" y2="129.89" gradientUnits="userSpaceOnUse"><stop offset="0" stop-color="#435259"/><stop offset="0" stop-color="#616d73"/><stop offset="0.01" stop-color="#858f93"/><stop offset="0.01" stop-color="#a5acb0"/><stop offset="0.02" stop-color="#c1c5c8"/><stop offset="0.02" stop-color="#d7dadb"/><stop offset="0.03" stop-color="#e8e9ea"/><stop offset="0.03" stop-color="#f3f4f4"/><stop offset="0.05" stop-color="#fafafa"/><stop offset="0.08" stop-color="#fcfcfc"/><stop offset="1" stop-color="#fff"/></linearGradient><linearGradient id="linear-gradient-6" x1="274.9" y1="59.98" x2="307.27" y2="92.36" gradientUnits="userSpaceOnUse"><stop offset="0" stop-color="#646566"/><stop offset="1" stop-color="#979899"/></linearGradient><linearGradient id="linear-gradient-7" x1="277.06" y1="114.54" x2="297.08" y2="94.52" gradientUnits="userSpaceOnUse"><stop offset="0" stop-color="#262626"/><stop offset="0.25" stop-color="#353535"/><stop offset="0.7" stop-color="#4a4a4a"/><stop offset="1" stop-color="#525252"/></linearGradient><linearGradient id="linear-gradient-8" x1="261.06" y1="135.12" x2="301.1" y2="135.12" xlink:href="#linear-gradient-6"/><linearGradient id="linear-gradient-9" x1="294.92" y1="92.36" x2="327.29" y2="59.98" gradientUnits="userSpaceOnUse"><stop offset="0" stop-color="#4e4f4f"/><stop offset="0.25" stop-color="#464747"/><stop offset="0.63" stop-color="#313232"/><stop offset="1" stop-color="#171717"/></linearGradient><linearGradient id="linear-gradient-10" x1="305.11" y1="94.52" x2="325.13" y2="114.54" gradientUnits="userSpaceOnUse"><stop offset="0" stop-color="#303030"/><stop offset="0.28" stop-color="#282828"/><stop offset="0.71" stop-color="#131313"/><stop offset="1"/></linearGradient><linearGradient id="linear-gradient-11" x1="301.1" y1="135.12" x2="341.13" y2="135.12" xlink:href="#linear-gradient-9"/></defs><title>eth_material</title><g class="cls-1"><g id="Layer_1" data-name="Layer 1"><g id="_16:9" data-name="16:9"><rect class="cls-2" x="0.01" width="355.55" height="200"/><rect class="cls-3" x="0.01" width="355.55" height="200"/><rect class="cls-4" x="0.01" width="355.55" height="200"/><polygon class="cls-5" points="0.01 0 0.01 87.75 112.26 200 291.58 200 91.58 0 0.01 0"/><polygon class="cls-6" points="319.56 0 119.56 200 112.26 200 0.01 87.75 0.01 0 319.56 0"/><polygon class="cls-7" points="0.01 0 0.01 87.75 112.26 200 291.58 200 91.58 0 0.01 0"/><polygon class="cls-8" points="0.01 0 0.01 87.75 112.26 200 263.46 200 63.47 0 0.01 0"/><polygon class="cls-9" points="0.01 0 0.01 87.75 112.26 200 263.46 200 63.47 0 0.01 0"/><polygon class="cls-10" points="112.26 200 0.01 200 0.01 87.75 112.26 200"/><polygon class="cls-11" points="319.56 0 119.56 200 0.01 200 0 102.48 102.48 0 319.56 0"/><polygon class="cls-12" points="102.48 0 7.37 95.11 0.01 102.49 0.01 0 102.48 0"/></g><g class="cls-13"><path class="cls-14" d="M314.36,185.49a1.31,1.31,0,0,0-.56.12L295,148.4l2-8.16,6.44-3,.24-.11.86-.4-.37,0a1.49,1.49,0,0,0,.27-.86,1.51,1.51,0,0,0-1.29-1.49l1.33-23.09a1.51,1.51,0,1,0-1.19-2.46L288,98.18l2.62-15,12.83-13.36a1.48,1.48,0,0,0,.94.34,1.51,1.51,0,1,0-1.5-1.5s0,0,0,.07l-8.65,1.19a1.49,1.49,0,0,0-.61-1L295,45.55a1.49,1.49,0,0,0,.78-1.31,1.42,1.42,0,0,0-.06-.42l17.51-13.29a1.47,1.47,0,0,0,1.11.5,1.5,1.5,0,1,0-1.5-1.5c0,.06,0,.11,0,.16L281.05,36,277.93,34l1.71-18.7a1.51,1.51,0,1,0-1.56-1.5,1.49,1.49,0,0,0,.8,1.31L268,27.94l-12.35-7.6a1.39,1.39,0,0,0,.17-.67A1.51,1.51,0,1,0,253.64,21L247,36.5,225,26.32l-.53-12.52a1.53,1.53,0,1,0-1.48-.73l-10.53,7.45L176.6,4a.88.88,0,0,0,0-.16,1.51,1.51,0,1,0-3,0,1.42,1.42,0,0,0,.33.92L131.05,27.49a1.5,1.5,0,0,0-2.91.54s0,.1,0,.15l-17.8,3.37L95.79,18.66a1.64,1.64,0,0,0,.09-.5,1.52,1.52,0,1,0-.43,1.05L102.7,33,75.55,38.13,61.4,16.07a1.48,1.48,0,0,0,.21-.75,1.51,1.51,0,1,0-1.51,1.51l.16,0,3.34,17.7.88,5.71L45.33,43.84a1.49,1.49,0,0,0-1.44-1.1A1.5,1.5,0,1,0,45,45.26L63.91,60,43.1,77.2a1.44,1.44,0,0,0-.72-.2,1.51,1.51,0,0,0,0,3h.18l7.25,35.9L35.23,133.12a1.46,1.46,0,0,0-.87-.28,1.51,1.51,0,1,0,.73,2.81L46,151.73a1.51,1.51,0,0,0-.57,1.17,1.53,1.53,0,0,0,.91,1.38l-9.86,19a1.54,1.54,0,0,0-.58-.12,1.51,1.51,0,1,0,1.5,1.6L70.5,174l17.93,15.54a1.33,1.33,0,0,0-.08.45,1.51,1.51,0,1,0,1.51-1.51,1.48,1.48,0,0,0-1,.36l-9.37-15,2.38-.05a1.49,1.49,0,0,0,1.35.85,1.51,1.51,0,0,0,0-3h-.13l-1.22-9.82,63.77,26.87,4.88,2.63a1.23,1.23,0,0,0,0,.2,1.51,1.51,0,1,0,3,0,1.46,1.46,0,0,0-.37-1l6.87-19.95L201.87,176s0,.09,0,.13a1.5,1.5,0,0,0,3,.32l14.58-4.75-5.19,8.61a1.47,1.47,0,0,0-.66-.17,1.51,1.51,0,1,0,1.5,1.51,1.44,1.44,0,0,0-.15-.65L226,174.49a1.5,1.5,0,0,0,2.72-.74h42.07a1.49,1.49,0,0,0,2.3,1.14l9.55,14.66a1.44,1.44,0,0,0-.08.46,1.51,1.51,0,0,0,1.34,1.49l.06.08.16.24.08-.32a1.51,1.51,0,0,0,1.37-1.49v0l27.28-2.71a1.5,1.5,0,1,0,1.48-1.78Zm-19.59-37.43-2.32-4.59,4.21-3ZM284.1,188.5H284l-5.63-34.14a1.49,1.49,0,0,0,1.24-1.47,1,1,0,0,0,0-.24l12.68-9,2.44,4.82-10,40.19A1.63,1.63,0,0,0,284.1,188.5ZM163.23,164.43a1.48,1.48,0,0,0-.88-1.2l16.15-9,10.62,9.41Zm-81.71-5.78-2.86-23,18.11,25.39a1.56,1.56,0,0,0-.38.88Zm-33.13-5.92a1.52,1.52,0,0,0-1.06-1.27L52.25,128l1,4.92a1.5,1.5,0,1,0,1.92,1.44,1.79,1.79,0,0,0,0-.23l6.53-1.57L63,137.13Zm-5-73.13,16.77,9.33-3.67,17.49-.86,1.93a1.52,1.52,0,0,0-.49-.09,1.38,1.38,0,0,0-.45.08L43.06,79.84A1.41,1.41,0,0,0,43.42,79.6Zm86.22-50.07a1.51,1.51,0,0,0,1.37-.88l6,4.07L124.28,43.88l-10.62-9.41,14.64-5.78A1.49,1.49,0,0,0,129.64,29.53ZM175.11,5.29a1.48,1.48,0,0,0,.83-.25l17.9,22.86-22-4.4L175,5.28Zm19,22.91,2.68,3.42L180.44,43.17,170,34.43l1.84-10.68ZM301.4,135.85a1.56,1.56,0,0,0,.14.61l-3.55-.34,6.18-24.87h0l-1.33,23.09A1.52,1.52,0,0,0,301.4,135.85Zm2.53-24.66-6.19,24.91-9.49-.91-6.48-12.79,1.75-1.21a1.62,1.62,0,0,0,.58.11,1.5,1.5,0,0,0,.38-3l2.23-12.7,16.22,3.89a1.79,1.79,0,0,0,0,.23A1.51,1.51,0,0,0,303.93,111.19Zm-11.8,32.2-12.63,9a1.52,1.52,0,0,0-1.42-1,1.49,1.49,0,0,0-1.11.51l-2-1.51,16.78-7.75Zm-.16-.85,3.81-1.76-3.45,2.46Zm-17.22,7.68-15.87-12,7.11-4.91,22.1,2.11,3.54,7ZM248.5,160.59a1.52,1.52,0,0,0-1.17.56l-13.63-5.5,11.45-7.92,11.51,1.85,4.5,6.91-11.22,5.18A1.52,1.52,0,0,0,248.5,160.59Zm-23.42.71L224,155.25l2.24-2.37,3.67,1.48-3.76,6.24Zm.7-.18-.56.93-.09-.48Zm-22.35,13.52L203,163.53l7-.2-5.51,11.41.23.11,5.56-11.53,5.91-.17L204.61,175.3A1.48,1.48,0,0,0,203.43,174.64Zm-43.22-10.22-18.16-8.89-1.3-5,10.31-2.91,10.33,15.56a1.51,1.51,0,0,0-1.14,1.28ZM78.59,135.16l-.13-1.07,2.33-5.25L91.37,131a1.47,1.47,0,0,0,.61,1.19l4.89,24.38.65,4a1.55,1.55,0,0,0-.56.28Zm-24.92-2.32-.17,0-1.12-5.5,3.26-15.53,6,20.46-6.52,1.58A1.5,1.5,0,0,0,53.67,132.84Zm2.08-21.53,0-.17a1.56,1.56,0,0,0,.85-1L62.72,132l-.86.21ZM291.54,71l-10.32,8,2.7-7.1,7.43-1.37A1.28,1.28,0,0,0,291.54,71Zm-10.7,8.34-7.59,5.91,1.06-11.55L283.63,72Zm-14.92,53.75L250,131.54l-2.1-1.59,10.67-11.26,21.55,1,1.31,2.59Zm15.64-10.52,6.4,12.62-21.65-2.07Zm-79.53,18-.08-2.14,6.65-1.13-6,3.35Zm.18.28-.16.09v-.12Zm-67.51,11.1L118.56,144l7.49-6.61,11.58,2,2.82,10.91Zm5.81-1.38,1.25,4.83L135,152.09ZM99.37,161.88a1.53,1.53,0,0,0-.28-.68l19.27-17,16,7.83ZM80.89,128.61l.35-.8,8.45-2,2.32,4a1.48,1.48,0,0,0-.62,1Zm32.71-73.5a1.41,1.41,0,0,0,.7-.19l2.94,4.57,11.29,18a1.49,1.49,0,0,0-.39,1v0l-21.25,2.13-2.82-4.24,9.47-21.32ZM152,21.17a1.35,1.35,0,0,0,.5-.09l13.58,30.09a1.51,1.51,0,0,0-.65.6L148.42,40.18l3.48-19Zm50.89,18.1,7.77,7.18-7,.9-1.44-7.68A1.52,1.52,0,0,0,202.93,39.27Zm41.5,3.23L239.8,53.29,231.89,59l-5.68-4-.44-10.18Zm28.33,45.34-1.22,13.39a1.42,1.42,0,0,0-.55.59l-8.53-7.88,9-7Zm-1.09-1.07,1.28-1-.16,1.78Zm-51.51,48.3-.66-3.54,7.88-4.38-3.52,7.3Zm3.57-.35-2.62,5.43-.9-4.83Zm-42.48,2.49-6.21-1,3.19-2.69,6.12,2.47Zm3.44-1.09,6.73,2.72-9.69-1.56ZM73.07,125.7l2.24-14.82,1.83,14.63-2.94,1.34A1.49,1.49,0,0,0,73.07,125.7Zm1.15,1.41,3-1.34.26,2.12-3.21-.66s0,0,0-.08S74.22,127.12,74.22,127.11ZM75.45,110l1-6.94,8.77,15.12-2,4.61-5.85,2.66ZM67.61,85l4.47-.06.32,2.55-4.86-2.12A1.16,1.16,0,0,0,67.61,85Zm4.72-.06L79,84.83,78.22,90l-5.56-2.43Zm161.45,32.33a1.43,1.43,0,0,0-.24-.77l20.29-15.81,9.45,6.29-19.42,10.78Zm-66.87,25,.27-7,7.28,1.17-7.08,6A1.42,1.42,0,0,0,166.91,142.21Zm.29-7.26.22-5.8L178,133.41l-3.26,2.75Zm-72.84-4.11a1.31,1.31,0,0,0-.06-.27l24-9.32,14.83,8.25a.88.88,0,0,0,0,.16,2,2,0,0,0,0,.24Zm-3.65-25-5.32,12-8.83-15.24.64-4.24ZM77.24,98.12l1.18-7.75,16.07,7-3.68,8.28ZM90.93,106l13.12,7.3L87.19,121l-1.64-2.83Zm.1-.23,3.69-8.3,22.53,9.84-12.92,5.86ZM206.85,65.5l1.93,10.27-2.07,1.49a1.49,1.49,0,0,0-2.2.62L168.16,53.07a1.61,1.61,0,0,0,.1-.53,1.86,1.86,0,0,0,0-.34l19.67-2.5ZM188.23,49.66l15.28-1.95,3.27,17.4Zm-53.57,78.5a1.52,1.52,0,0,0-1.08.45L126.77,118l3.67-1.43,5.75,8.65-1.25,3A1.27,1.27,0,0,0,134.66,128.16Zm-14.35-19.78-2.45-1.07,1.37-.62ZM115,99.69l7,5.45-2.73,1.23Zm4.42,6.9,2.81-1.28,1.45,1.13,3.21,4.83-6.2-2.71ZM225.82,82.75l-15.44.19-.68-3.62,16.08,2.89a.78.78,0,0,0,0,.14A1.76,1.76,0,0,0,225.82,82.75Zm-15.7.19-1.33,0-2.13-3.18a1.5,1.5,0,0,0,.66-.88l2.11.38Zm0,.25.48,2.55L209,83.21ZM183.89,91l-13.18-7.11a2,2,0,0,0,0-.24L184,83.52l3.16,5.89Zm3.36-1.4,2.41,4.52-5.5-3ZM167.9,53.5l15,28L170.73,83.2A1.51,1.51,0,0,0,169.27,82L167.1,54A1.45,1.45,0,0,0,167.9,53.5ZM183,81.76l.81,1.51-13,.16ZM169.26,85a1.51,1.51,0,0,0,1.36-.87l13,7-15,7.5L169.15,85Zm15-1.51,15-.19-12,6Zm-.14-.25-.82-1.54,21.1-2.89A1.5,1.5,0,0,0,205.87,80h.07l-6.13,3.06ZM206.51,80l2,3-8.1.11Zm.85-1.35c0-.05,0-.09,0-.14a1.46,1.46,0,0,0-.46-1.08L208.83,76l.56,3Zm-3-.06-21.2,2.9L168.09,53.33l36.33,24.8a1.59,1.59,0,0,0-.06.38S204.37,78.56,204.37,78.59Zm-36.24,5.92a1.54,1.54,0,0,0,.77.47l-.54,13.82L142,112l2.53-6.07,23.06-21.15Zm-31.46,30.13h-.52a1.5,1.5,0,0,0-.31-.78l8.22-7.55-2.43,5.84Zm4.81-2.12-.87,2.09-3.38,0Zm-8.14,1.55-6-2.61-3-4.53,9.06,7Zm-.1.23a1.51,1.51,0,0,0-.09.48,1.6,1.6,0,0,0,0,.23l-3,.72-2.59-3.89Zm-.38,1-2.32.9-.2-.3Zm3.29-.45h0Zm8.58-9.53L150,92.73l16.82-7.63Zm-.44.4-8.62,7.91a1.4,1.4,0,0,0-.62-.34l2.76-15.07,11.86-5.39Zm-9.49,7.52h-.22l-1.77-12.76,4.72-2.14Zm-.47,0a1.44,1.44,0,0,0-.77.45l-9.65-7.5L123,105l9.54-4.32Zm-11-7.53-.76-.59.28-.13Zm3.9,5.87,2.75,4.13-4,1-5-7.81Zm2.89,4.36.22.32-3.67,1.43-.51-.8Zm.6.44,2.63-1a1.51,1.51,0,0,0,1.35.85,1.54,1.54,0,0,0,.6-.13l4,1.63-3,7.13Zm4.85-.46a1.45,1.45,0,0,0,.56-.79l.64-.32,3.77,0-1.12,2.7Zm5.24-1.14,27-.2-.56,14.12-27.57-11.13Zm.11-.25.94-2.27,26.53-13.26-.6,15.33ZM168.6,99l15.29-7.65,6,3.24,10.16,19a1.52,1.52,0,0,0-.55.65l-31.49.24Zm32.25,14.32a1.45,1.45,0,0,0-.59.12l-10-18.64,18.33,9.9-7.19,8.73A1.48,1.48,0,0,0,200.85,113.28ZM190.06,94.36l-2.59-4.84,12.4-6.2,8.79-.11,2.11,3.15,2.39,12.77-4.39,5.33Zm23.16,5.09,1.55,8.25L209,104.58Zm.21-.25,3.27-4,14.15,21.14-15.8-8.52Zm-.06-.32-2.25-12L216.55,95ZM211,86.27l-.58-3.08L225.91,83a1.36,1.36,0,0,0,.24.35l-9.43,11.46Zm15.2-5-11.46-9.55,11.57-8.38.75,17.5A1.48,1.48,0,0,0,226.2,81.3Zm-.16.19a1.51,1.51,0,0,0-.22.48l-16.17-2.91-.6-3.18,5.48-4ZM209,75.6l-1.85-9.85,7.18,6ZM166,53.81l-8.21,19.7L149,65.74l16.92-12Zm.22.12a1.55,1.55,0,0,0,.56.11h0l2.12,28a1.52,1.52,0,0,0-.82.56L158,73.68Zm1.74,28.91a1.48,1.48,0,0,0-.17.63l-14,.17,4-9.71Zm-.15.88a1.46,1.46,0,0,0,.11.41l-.47.43-17.27,7.83,3.54-8.49Zm-18,8.82L137.86,98l2.54-13.91,13-.16Zm-12.23,5.55-4.8,2.18-2.23-16.08,9.6-.12Zm-5,2.29-9.64,4.37-13.49-20.3,20.89-.26Zm-9.87,4.48-.37.16-7.67-6L105.29,84.5l3.82,0ZM114,98.6,99.31,87.15l1.15-2.59L105,84.5Zm.4.63,4.65,7.25-1.54.7L94.82,97.25l4.38-9.87Zm3.11,8.22,3,1.31,5.16,8-10.35,2.5-10.77-6Zm8.31,9.59.53.82-8,3.11-2.67-1.48Zm.67,1,6.89,10.74a1.69,1.69,0,0,0-.2.43l-14.58-8.11Zm8.66,10.19,1.16-2.81,3.38,5.08-3.6-.57a1.53,1.53,0,0,0,0-.3A1.5,1.5,0,0,0,135.19,128.26Zm1.28-3.08,3-7.3,27.66,11.17-.22,5.86-26.88-4.32Zm31,3.7.56-14.22,31.41-.24a1.42,1.42,0,0,0-.05.36,1.46,1.46,0,0,0,.1.52l-21.26,17.93Zm34.22-15.37,7.19-8.73,6,3.23,1.43,7.62-14-1.34A1.49,1.49,0,0,0,201.65,113.51Zm13.46-5.34,15.79,8.52a1.78,1.78,0,0,0-.09.33l-14.29-1.36Zm15.67,9.1v0a1.55,1.55,0,0,0,.07.43l-13,5.1-1.29-6.91Zm2.6-1a1.71,1.71,0,0,0-.51-.37l7.85-24,12.89,8.58Zm-.75-.44a1.34,1.34,0,0,0-.35,0,1.47,1.47,0,0,0-1.15.55L216.86,95l9.47-11.51a1.48,1.48,0,0,0,.94.34,1.5,1.5,0,0,0,.86-.28L240.5,91.8Zm-4.3-32.42a1.49,1.49,0,0,0,.44-1.06,1.63,1.63,0,0,0,0-.31l15.91-2.92-4.07,12.43Zm-1-2.56-.76-17.65,1.28-.92,5.82,5.38L227.92,81A1.58,1.58,0,0,0,227.31,80.85Zm-.77-17.95L226.46,61l1.18,1.08Zm-.09-2.24-.23-5.29,5.46,3.81L227.84,62Zm-.26-.24L211.35,46.71l2.08-.26L226,55.19Zm0,.36.1,2.29-11.76,8.52-7.46-6.22-3.32-17.69,7.27-.93Zm-60.5-7.17-16.91,12-.13-.12,16.82-12.12A3,3,0,0,0,165.7,53.61Zm-8,20.14-4.13,9.9-13.07.16L143,70l5.8-4.11ZM140.19,83.81l-9.67.12L130,80a1.5,1.5,0,0,0,1.18-1.46.51.51,0,0,0,0-.13l11.55-8.17ZM129.64,80h.08l.55,3.93-21,.26-2.19-3.3,21.12-2.12A1.5,1.5,0,0,0,129.64,80Zm-20.7,4.19-3.81,0-1.91-3,3.54-.36Zm-4.1,0-4.27.06,1.28-2.9,1.09-.11Zm-4.55.06-4.57.06-2.66-2.08,8.51-.85Zm-.11.25L99.1,87,96,84.61ZM99,87.23l-4.41,9.92-16.14-7,.8-5.29,16.39-.2Zm-20.82,3L77,98l-3.28-1.82-1-8.3Zm-4.52,7.36-1-1.78.87.48Zm.11-1.15L77,98.25l-.61,4L74,98.17Zm2.53,6.2-1,6.37L74.06,98.81Zm9.12,15.74L87,121.06l-3.4,1.54Zm1.67,2.86,2.47,4.27-8.19,2,2-4.58Zm.22-.1,17-7.71L115,119.4l-25.2,6.08Zm28-1.59,2.72,1.51-23.84,9.25a1.49,1.49,0,0,0-1.34-.85,1.51,1.51,0,0,0-.64.15L90,125.71ZM94,131.94l31.71,5.42-7.42,6.55L94,132Zm.15-.23a1.32,1.32,0,0,0,.18-.62l38.88-.94a1.77,1.77,0,0,0,.21.41L126,137.15Zm39.44-1a1.49,1.49,0,0,0,1,.43,1.52,1.52,0,0,0,.79-.23l2.11,8.19L126.3,137.2Zm2,0a1.5,1.5,0,0,0,.3-.4l5.15,2.26,5.33,8-8.62-1.48Zm.61-.54,3.64.59.94,1.42Zm4,.64,26.68,4.29-.28,7.05a1.49,1.49,0,0,0-1.22.78l-24.15-10.56Zm27.43,11.66-.08-.06,7.18-6.05,6,1Zm10.76-9.2,21.11-17.79a1.49,1.49,0,0,0,1.23.74l.53,13-16.63,6.53ZM201,116.27a1.5,1.5,0,0,0,1.32-1.49,1.79,1.79,0,0,0,0-.23l14,1.34,1.31,7-16.05,6.31Zm16.63,6.9,1.55,8.23-10,5.52-7.32,1.24-.36-8.67Zm1.6,8.49.64,3.45L210,136.79Zm.18-.39-1.54-8.2,13-5.12a1.53,1.53,0,0,0,.58.63l-4,8.18Zm12.3-12.58a1.32,1.32,0,0,0,.53.11,1.59,1.59,0,0,0,.39-.06l4,3L228,126.55Zm1.19,0a1.53,1.53,0,0,0,.83-1.15l9.67.47-6.57,3.64Zm11-.66,14.34.69L247.72,129.8l-10.63-8Zm.41-.23,19.19-10.65,3.5,2.33-8.53,9ZM263.77,107l7.13-4a1.52,1.52,0,0,0,1.26,1l-5,5.24Zm7.12-4.9a1.32,1.32,0,0,0-.08.44,1.13,1.13,0,0,0,0,.25l-7.31,4L254,100.5l8.22-6.4Zm-17.07-1.71-13-8.66,4.13-12.63.89-.16,16.25,15ZM245,78.8l.16-.48.41.37Zm-.28,0-16.08,3a1.49,1.49,0,0,0-.52-.67l5.7-13.29L245,78.13Zm-11-11.44L228,62.13l3.86-2.8,4.1,2.86Zm-1.64-8.24,7.5-5.43L236.09,62ZM226,54.88,213.8,46.4l11.72-1.49ZM165.35,52a1.63,1.63,0,0,0-.1.55,1.56,1.56,0,0,0,.11.57l-16.9,12.17-4-3.52,3.89-21.31Zm-17.1,13.44-5.12,3.69,1.3-7.08Zm.2.17.13.12L143,69.65l0-.17Zm-5.71,4.25L131.26,78l11.51-8.29Zm-14,7.48L127.86,76l.87,1.34Zm-22.1,3.36-3.54.35-.62-1,1.5-3.38Zm-3.82.38-.82.08.36-.81Zm-1.11.11-8.91.89L82.6,74.16l11.08-7.3,8.49,13.23Zm-9.27.93L79.47,83.4l1.2-8,1.7-1.12Zm.29.22,2.62,2-16,.2.14-.91ZM79,84.58l-6.74.08,0-.29,6.91-.69Zm-7,.08L69,84.7l3-.3Zm-4.61.91,5,2.18,1,8.26-1.08-.59L67,86.09A1.44,1.44,0,0,0,67.44,85.57ZM72,95.18l-4.43-2.46-1-6.42.22-.08Zm.24.42,1.54,2.65L75.2,110l-2.38,15.7h-.2L67.58,93Zm-1,31.55a1.49,1.49,0,0,0,.32.92l-2.24,2.37L63,132l-6-21.75,14.94,15.69A1.53,1.53,0,0,0,71.22,127.15ZM69,130.77,64.08,136l-1-3.79Zm.44-.11,2.76-.66-3.32,23.3-4.71-17Zm.31-.33,2-2.07h0a1.5,1.5,0,0,0,.69.37l-.16,1.11Zm2.9-1.68h.08a1.47,1.47,0,0,0,.77-.22l.6.84-1.6.39Zm1-.35a1.46,1.46,0,0,0,.5-.82l3.27.68,0,.3-3.15.76Zm3.72-2.64,5.65-2.56-2,4.5-2.34.56-1-.21Zm1.32,2.76,1.81.37-2.14,4.82-.62-5Zm.57-.14,1.64-.4-.3.68Zm13.57,4.22H93l2.84,17.58-3.55-17.69A1.46,1.46,0,0,0,92.87,132.5Zm.36-.05a1.39,1.39,0,0,0,.56-.27l24.32,11.9L98.92,161a1.49,1.49,0,0,0-1-.42l-.81-4Zm44.67,7,8.74,1.49,4.27,6.43-10.22,2.88ZM147,141l16.53,2.83-12.34,3.47Zm-.19-.28-5.25-7.9,23.8,10.41,0,.09-1.24.35Zm18.47,2.87s0,.08,0,.12a.78.78,0,0,0,0,.16l-.63-.1Zm2.63-.86,13.38-5.25,11.2,1.79.87.36-25.1,4.25a1,1,0,0,0,0-.17A1.56,1.56,0,0,0,167.89,142.72Zm24.64-3.7-7.5-3,16.3-6.41.36,8.62-6.94,1.18Zm9.17-.57.08,2.06-6.26-1Zm7.65-1.29,10.61-1.8,1,5.17-1.37,2.83L203,140.7ZM221,140.94l.51,2.74-1.7-.27Zm.56,3L223,151.3,217.14,149l2.57-5.32Zm.26,0,10.8,1.74-6.5,6.87-2.9-1.18Zm11.1,1.79,1.92.3L230,154.15l-3.61-1.46Zm.21-.22,5.58-5.88L235,145.84Zm-.3-.05-11.06-1.78-.59-3.16,2.84-5.89,18.5-3.13a1.5,1.5,0,0,0,.57.84l-3.78,6.28Zm10.48-13a1.46,1.46,0,0,0,.66.16,1.5,1.5,0,0,0,1.24-.65l.16.24-5.26,5.55Zm2-.74a1.44,1.44,0,0,0,.11-.42l.71.07-.62.65Zm.12-.67a1.5,1.5,0,0,0-3,.07s0,.08,0,.12l-18.32,3.1,3.6-7.45,9.08-5L247.54,130l-1.14,1.21Zm2.27-1,1.79,1.36-2.82-.27Zm32.68-10.38,2.17.1a1.5,1.5,0,0,0,.68,1.2l-1.62,1.12Zm-.13-.26-.94-1.86,2.94,2Zm-.29,0-21.2-1,8.42-8.88,11.7,7.78ZM267.4,109.38l4.89-5.15,6.41,12.66Zm4.92-8.38a1.46,1.46,0,0,0-.52.1L273,88l3.59,2.51-4,10.52A2.06,2.06,0,0,0,272.32,101Zm.7-13.28.2-2.16,7.45-5.8-4,10.5Zm0-2.29-1.53,1.19-14.09-9.83,16.69-3.07Zm-1.74,1.35-9,7L246.13,78.85l10.88-2ZM245.9,78.64l-.63-.59,2.5-7.64,9,6.24Zm-.84-.77L234,67.59l2.25-5.26,11.36,7.93ZM236.3,62.1l3.7-8.65,16.22-11.74a1.72,1.72,0,0,0,.55.41L247.64,70Zm19.77-20.6L240.2,53l4.51-10.54L255.89,41A1.43,1.43,0,0,0,256.07,41.5Zm-45,4.91-7.24-6.69L213,46.15Zm-9.16-6.68.15,0,1.44,7.68-15.53,2-7.28-6.06,16.27-11.52L201,37a1.48,1.48,0,0,0-.63,1.21A1.52,1.52,0,0,0,201.86,39.73Zm-14.28,9.71-19.05,2.47,11.9-8.42ZM168.11,51.9a1.53,1.53,0,0,0-1-.83l2.82-16.35,10.32,8.6ZM166.84,51a.12.12,0,0,0-.2,0,1.37,1.37,0,0,0-.28.05L152.77,21a1.46,1.46,0,0,0,.34-.26l16.57,13.81Zm-15.19-29.9L148.19,40l-3-2,6.43-16.88Zm-3.5,19.19-3.89,21.26-6-5.32,6.86-18Zm-3.94,21.55-1.37,7.48L131,77.86a1.51,1.51,0,0,0-.71-.7l7.87-20.66ZM130.06,77.07a1.48,1.48,0,0,0-.42-.07,1.41,1.41,0,0,0-.7.19L117.45,59.35l-2.89-4.61a1.47,1.47,0,0,0,.54-1.14,1.52,1.52,0,0,0-.38-1l9.56-8.4L138,56.32Zm-16.78-22-9.37,21.1L96.49,65l15.93-10.48A1.46,1.46,0,0,0,113.28,55.07Zm-9.49,21.37-1.5,3.38-8.4-13.09,2.39-1.58Zm-10-9.93-9.5-14.8.58-3.79,11.3,17Zm-.21.14L82.39,74l-1.34-1,3.16-20.87Zm-11.38,7.5-1.45.94L81,73.24Zm-1.73,1.13L71.84,81l-2-16.42,11,8.54Zm0,.33-1.18,7.82-7,.69-.36-2.89ZM72,84.15l-4.38.44a1.54,1.54,0,0,0-.16-.44l4.2-2.77Zm-5.86,2.22.17,0,1,6.21-3.44-1.91,1.93-4.34A1.59,1.59,0,0,0,66.12,86.37Zm1.18,6.51,5.07,32.82a1.43,1.43,0,0,0-.27.09L56.77,109.68l-.11-.11a1.6,1.6,0,0,0-.37-.8l.47-2.28,7-15.61ZM56.07,108.57l-.18-.12.39-.86Zm6.71,23.7,1.1,3.95-.66.7-1.29-4.44ZM64,136.5l4.82,17.42-.06.49h-.09a1.53,1.53,0,0,0-.3,0l-5-17.23ZM69,153.91l3.41-24,1.79-.43,3.69,5.16-8.76,19.72Zm5.47-24.47,3-.73.67,5.34-.16.35Zm3.75,5.09,0,.2-.07-.1Zm21.12,27.6,35.29-9.93,7.17,3.5,2.11,8.17-44.59-1.52A1.5,1.5,0,0,0,99.38,162.13Zm42.76-6.28,17.46,8.55-15.39-.52Zm19.6,7.24h-.07l-10.36-15.59,12.77-3.59,1.24.21a1.49,1.49,0,0,0,2.47.66l10.51,9.31-16.27,9A2.58,2.58,0,0,0,161.74,163.09ZM168,144.6a1.4,1.4,0,0,0,.24-.47l25.59-4.34,6,2.41L178.53,154Zm26.3-4.88.5-.09,7,1.13v.3L200,142Zm7.56,1.62.07,1.45-1.56-.62Zm.25-.14.55-.3,16.84,2.7-2.54,5.26-14.78-6Zm14.74,7.89-6.75,14-7.09.2-.82-20.11Zm-6.47,14,6.7-13.89,6,2.42.67,3.57-7.32,7.72Zm12.95-11.36,2.66,1.07L223.89,155Zm6.81,2.75,3.09,1.24-6.58,4.55Zm.13-.22,4.9-8.12,9.67,1.55-11.36,7.86Zm15.23-6.72,6.8-4.7,4.22,6.48Zm-.36-.05-9.83-1.58,4.26-7.07,6-6.34,6.6,10.13Zm.61-15.18.8-.84,3.43.33,8.52,6.44-6.13,4.24Zm4.7-.46,15.2,1.45-6.93,4.79Zm33.84-13.52-.14,0a1.51,1.51,0,0,0-1.47,1.21l-3.5-2.32L272.45,104a1.49,1.49,0,0,0,1.36-1.43l12.65,3Zm-10.44-16a1.45,1.45,0,0,0-.58-1l7.57-7.88,6.95,4.85-1.23,7.06Zm-.79-1.13-.19-.08,4-10.45,3.79,2.64Zm3.88-10.77,4.16-11,10.64-8.29a1.56,1.56,0,0,0,.72.43l-2,11.45-9.66,10.06ZM291.31,70.3,284,71.63l2.49-6.54,5.05,4.2a1.51,1.51,0,0,0-.27.86A.77.77,0,0,0,291.31,70.3Zm-7.58,1.39-9.4,1.73,1.56-17.14,10.41,8.65Zm-9.66,1.77-17,3.13-9.22-6.43,9.16-28a1.34,1.34,0,0,0,.35,0,1.48,1.48,0,0,0,1.07-.45l17.23,14.31ZM258.59,41.59a1.51,1.51,0,0,0,.27-.86c0-.06,0-.11,0-.16l18.56-3.65-1.72,18.87Zm-2.72-1-.15-.07.15,0Zm-.46.06L244.9,42l1.45-3.36,8.32,1.66Zm-10.79,1.4L225.76,44.5l-.43-10,20.77,4.16Zm-19.11,2.47L213.37,46.1,203.15,39a1.46,1.46,0,0,0,.21-.75,1.5,1.5,0,0,0-1.5-1.5,1.54,1.54,0,0,0-.67.16l-4.07-5.2,3.15-2.24,24.8,5ZM197,31.48l-2.5-3.2,5.47,1.09Zm-27.23,2.77L153.27,20.53a1.24,1.24,0,0,0,.21-.45l18.07,3.62ZM151,20.75a1.56,1.56,0,0,0,.4.27L145,37.85l-7.59-5.16Zm-6.1,17.34-6.85,18-13.58-12,12.74-11.19Zm-20.81,6-9.55,8.39a1.5,1.5,0,0,0-.94-.34,1.46,1.46,0,0,0-.52.09l-7.62-14.48,7.93-3.13ZM112.86,52.3a1.52,1.52,0,0,0-.76,1.17L86.23,46a1.45,1.45,0,0,0,0-.3,1.25,1.25,0,0,0-.07-.43l19-7.51Zm-28.1-5a1.5,1.5,0,0,0,1.4-1l25.94,7.45a1.5,1.5,0,0,0,.18.59L96.35,64.8,84.68,47.24l-.62,4.15L81.62,47.6l1.88-1A1.51,1.51,0,0,0,84.76,47.25ZM84,51.77l-3.18,21-11.07-8.6-1-8.07A1.48,1.48,0,0,0,69,54.5l12.4-6.78ZM66.84,53.83,65,41.79l2.25,11.87A1.71,1.71,0,0,0,66.84,53.83Zm.79,2.78a1.84,1.84,0,0,0,.41-.06l-1,.79.16-.78A1.67,1.67,0,0,0,67.63,56.61Zm.9-.15.94,7.5-3.25-2.52L67,57.73ZM66,61.27,64.31,60l2.38-2Zm.16.44,3.35,2.6L71.6,81.1l-4.3,2.84a1.5,1.5,0,1,0-1.8,2.29l-1.91,4.3L60.48,88.8ZM63.48,90.76,57,105.32l3.41-16.27ZM54.3,111a1.48,1.48,0,0,0,.87.28,1.53,1.53,0,0,0,.3,0l0,.08-3.23,15.42L50.08,116Zm8.8,26.42,5,17.09a1.54,1.54,0,0,0-.89,1l-18.54-2.65Zm7,18.94,11.23,2.51.32,2.55L70,156.52Zm0-.24a1.36,1.36,0,0,0,0-.2,1.52,1.52,0,0,0-.78-1.32L78.1,134.9l.25.36,2.91,23.33Zm73.9,8,1.11,4.29-44.7-5.78Zm.26,0,15.88.54.1.05a1.51,1.51,0,0,0,1.1,1.33l-1.47,4.27-14.5-1.88Zm34.46-10L200,142.32l1.85.75.82,20.22-13.23.38Zm24,9.4.46,11.11a1.44,1.44,0,0,0-.85.4l-12.57-11.14Zm13.76-.4,6.2-.18-17.52,12.12Zm.24-.26,7-7.4,1.13,6-1.8,1.24Zm8.19-1.15.12.65-.16.27-1.35,0Zm1.38-.95,7.17-5,13.73,5.54a1.45,1.45,0,0,0-.19.65l-21.67.63,0-.22Zm-1.16,2.11,1.18,6.3L220,171.26l5-8.36Zm.25,0,21.63-.62c0,.06,0,.12,0,.17l-20.48,6.68Zm21.73-.21s0,0,0,0l-18.6,10.1a1.5,1.5,0,0,0-1.25-.68l-.15,0-.52-2.78ZM228.64,173l18.6-10.1a1.53,1.53,0,0,0,1.26.68,1.5,1.5,0,0,0,1.29-.75l21.13,10.24a1.43,1.43,0,0,0-.09.41H228.76A1.31,1.31,0,0,0,228.64,173Zm42.39-.16L249.9,162.63a1.62,1.62,0,0,0,.1-.54c0-.06,0-.11,0-.16l11.3-5.23,10.2,15.67A1.65,1.65,0,0,0,271,172.86Zm-14-23.23,14.11,2.27-9.71,4.49Zm-.18-.28-4.35-6.68,6.21-4.29,15.82,12-3,1.37Zm17.91,1.16,2.1,1.59a1.34,1.34,0,0,0-.19.44l-4.68-.76Zm22-10.46-4.9,2.26-3.47-6.85,9.29.89Zm1.17-3.68,3.55.34-4.42,3.15Zm3.84.45a1.43,1.43,0,0,0,.89.5l-4.56,2.11Zm1.35-27.8a1,1,0,0,0-.13.28l-16.24-3.89,1.22-7ZM287.79,98,281,93.26l9.37-9.76Zm15.5-28.38L290.72,82.73l1.94-11.09h.14a1.5,1.5,0,0,0,1.5-1.49L303,69A1.53,1.53,0,0,0,303.29,69.64Zm-9.87-.86a1.6,1.6,0,0,0-.62-.13,1.52,1.52,0,0,0-1.08.45l-5.12-4.25,7.29-19.17a1.4,1.4,0,0,0,.41.06,1.77,1.77,0,0,0,.46-.07Zm19.5-38.84a1.71,1.71,0,0,0,.17.39L295.64,43.57a1.5,1.5,0,0,0-1.34-.83,1.52,1.52,0,0,0-1.21.61l-11.72-7.21ZM293,43.57a1.49,1.49,0,0,0,.69,2L286.4,64.68,275.92,56l1.75-19.11,3.34-.66ZM280.69,36l-3,.59.21-2.31Zm-1.57-20.78a1.18,1.18,0,0,0,.27.06l-1.7,18.58-9.44-5.81Zm-11,13,9.59,5.9-.23,2.5L258.8,40.32a1.47,1.47,0,0,0-.38-.65Zm-14.2-7.17a1.4,1.4,0,0,0,.47.08,1.52,1.52,0,0,0,1.21-.61l12.31,7.57-9.64,11.38a1.48,1.48,0,0,0-.87-.28,1.5,1.5,0,0,0-1.44,1.08l-1.18-.23-7.51-3.48Zm-6.75,15.74,6.56,3-7.24-1.45Zm-.23-.1-.7,1.64-20.88-4.18L225,26.6ZM223.11,13.28a1.52,1.52,0,0,0,1.09.53l.53,12.39-12-5.56Zm-10.64,7.53,12.27,5.67.33,7.66-24.51-4.9Zm-.26-.12-12,8.48-6-1.2L176.13,4.89a1.54,1.54,0,0,0,.42-.69ZM174.11,4.9a1.51,1.51,0,0,0,.62.34l-3.14,18.21-18.06-3.61a1,1,0,0,0,0-.17,1.51,1.51,0,1,0-3,0,1.47,1.47,0,0,0,.3.89l-13.65,12-6.1-4.15a1.51,1.51,0,0,0,.06-.37,1.36,1.36,0,0,0,0-.29ZM128.2,28.43s0,0,0,0l-14.77,5.83-2.85-2.53Zm-15,6-7.83,3.09-2.27-4.3,7.19-1.36ZM95.62,19l.06-.11L110,31.61,103,32.94Zm7.2,14.22,2.29,4.36-19,7.5a1.5,1.5,0,0,0-2.84.66,1.36,1.36,0,0,0,.13.61l-1.9,1-5.8-9ZM81.27,47.51,68.88,54.28a1.5,1.5,0,0,0-1.25-.68l-.16,0L65,40.38l10.46-2ZM60.5,16.76a1.51,1.51,0,0,0,.35-.14L62.48,27.2Zm3.35,17.71-2.78-18a.91.91,0,0,0,.17-.17l14,21.89-10.36,2ZM45.15,45.06a1.54,1.54,0,0,0,.24-.82c0-.05,0-.1,0-.15l19.14-3.62L66.61,54a1.51,1.51,0,0,0-.49,1.11A1.5,1.5,0,0,0,67,56.46v0l-.23,1.09-2.66,2.2Zm19,15.06,1.82,1.42L60.25,88.67,43.58,79.4a1.46,1.46,0,0,0,.31-.89,1.52,1.52,0,0,0-.57-1.17ZM42.8,80h0l11.66,28.49a1.5,1.5,0,0,0-.38,2.4L50,115.66Zm-7.5,55.56a1.52,1.52,0,0,0,.56-1.17,1.46,1.46,0,0,0-.44-1.06l14.46-17.07,2.25,11.15-5.05,24-.18,0a1.47,1.47,0,0,0-.73.2Zm2.05,39a1.49,1.49,0,0,0-.69-1.11l9.88-19a1.42,1.42,0,0,0,.36.05,1.5,1.5,0,0,0,.73-.2l22.59,19.58Zm10.5-20.42a1.52,1.52,0,0,0,.54-1l18.75,2.68c0,.07,0,.14,0,.21a1.51,1.51,0,0,0,1.51,1.5,1.86,1.86,0,0,0,.34,0l10.12,16.22-8.5.18Zm40.87,35a1.07,1.07,0,0,0-.19.28L70.87,174l8.37-.17Zm-5.83-17.37a1.5,1.5,0,0,0-1.14,1.45,1.76,1.76,0,0,0,.06.41l-2.43.05L69.22,157.29a1.54,1.54,0,0,0,.66-.55l11.76,5Zm-1-10.14-.32-2.62,14.84,3.31a1.48,1.48,0,0,0,2.22,1.18l44.72,24Zm17,1.71a1.42,1.42,0,0,0,.4-.51l45.94,5.94,5.66,21.92-5.06-2.13Zm49.3,26.48,2.58,1.09a2.44,2.44,0,0,0-.1.24Zm4.84.62A1.53,1.53,0,0,0,152,190a1.5,1.5,0,0,0-1,.38l-5.6-21.69,14.35,1.86Zm7.15-20,1.47-4.26h.14a1.49,1.49,0,0,0,1.49-1.42l26.16-.76,12.77,11.32a1.52,1.52,0,0,0-.25.51Zm44.73,5.83s0,0,0-.05a1.51,1.51,0,0,0-.09-.48L223.14,163l1.57,0-5.1,8.48Zm9.93,4.6a1.93,1.93,0,0,0-.35-.35l5.33-8.85,6.58-2.14.52,2.74a1.5,1.5,0,0,0-1.11,1.45,1.41,1.41,0,0,0,.16.64Zm58.54-6.05a1.5,1.5,0,0,0-1-2.61,1.55,1.55,0,0,0-.61.13L261.53,156.6l10-4.63,5,.81s0,.08,0,.12a1.5,1.5,0,0,0,1.5,1.5h0l5.64,34.15a1.51,1.51,0,0,0-.94.73Zm12.25,15a1.5,1.5,0,0,0-.66-1l9.93-40,18.72,36.95a1.5,1.5,0,0,0-.71,1.28v0Z" transform="translate(0 0)"/></g><polygon class="cls-15" points="301.1 33.78 261.06 98.53 301.1 98.53 301.1 33.78"/><polygon class="cls-16" points="301.1 122.51 261.06 98.53 301.1 98.53 301.1 122.51"/><polygon class="cls-17" points="301.1 131.35 301.1 163.11 261.06 107.13 300.66 131.09 301.1 131.35"/><polygon class="cls-18" points="301.1 33.78 341.13 98.53 301.1 98.53 301.1 33.78"/><polygon class="cls-19" points="301.1 122.51 341.13 98.53 301.1 98.53 301.1 122.51"/><polygon class="cls-20" points="341.13 107.13 301.1 163.11 301.1 131.35 301.53 131.09 341.13 107.13"/><polygon class="cls-21" points="301.1 98.09 341.13 98.53 301.1 98.97 301.1 98.09"/><polygon class="cls-22" points="261.06 98.53 301.1 98.09 301.1 98.97 261.06 98.53"/><path class="cls-23" d="M301.1,33.78l.23,44.37c0,3.7.08,7.39.14,11.09s.06,7.39,0,11.09c-.06,7.39-.14,14.79-.4,22.18-.26-7.39-.34-14.79-.41-22.18,0-3.7,0-7.39,0-11.09s.1-7.39.13-11.09Z" transform="translate(0 0)"/><polygon class="cls-23" points="301.53 131.09 301.1 163.11 300.66 131.09 301.1 131.35 301.53 131.09"/></g></g></svg>