<svg xmlns="http://www.w3.org/2000/svg" xmlns:xlink="http://www.w3.org/1999/xlink" viewBox="0 0 300 209.84"><defs><style>.cls-1{fill:url(#linear-gradient);}.cls-2{isolation:isolate;}.cls-3{fill:url(#radial-gradient);}.cls-4,.cls-77{mix-blend-mode:screen;}.cls-5{fill:#8f8f8f;}.cls-6,.cls-61,.cls-69,.cls-76{mix-blend-mode:multiply;}.cls-6{fill:url(#linear-gradient-2);}.cls-7{fill:#fff;opacity:0;}.cls-8{fill:#f6f9fc;}.cls-35,.cls-8{opacity:0.04;}.cls-9{fill:#edf4f9;}.cls-36,.cls-9{opacity:0.08;}.cls-10{fill:#e4eef6;}.cls-10,.cls-37{opacity:0.12;}.cls-11{fill:#dbe8f3;}.cls-11,.cls-38{opacity:0.15;}.cls-12{fill:#d2e3f0;}.cls-12,.cls-39{opacity:0.19;}.cls-13{fill:#c9dded;}.cls-13,.cls-40{opacity:0.23;}.cls-14{fill:#c0d7eb;}.cls-14,.cls-41{opacity:0.27;}.cls-15{fill:#b7d1e8;}.cls-15,.cls-42{opacity:0.31;}.cls-16{fill:#aecce5;}.cls-16,.cls-43{opacity:0.35;}.cls-17{fill:#a5c6e2;}.cls-17,.cls-44{opacity:0.38;}.cls-18{fill:#9cc0df;}.cls-18,.cls-45{opacity:0.42;}.cls-19{fill:#93bbdc;}.cls-19,.cls-46{opacity:0.46;}.cls-20{fill:#8bb5d9;}.cls-20,.cls-47{opacity:0.5;}.cls-21{fill:#82afd6;}.cls-21,.cls-48{opacity:0.54;}.cls-22{fill:#79aad3;}.cls-22,.cls-49{opacity:0.58;}.cls-23{fill:#70a4d0;}.cls-23,.cls-50{opacity:0.62;}.cls-24{fill:#679ecd;}.cls-24,.cls-51{opacity:0.65;}.cls-25{fill:#5e99ca;}.cls-25,.cls-52{opacity:0.69;}.cls-26{fill:#5593c7;}.cls-26,.cls-53{opacity:0.73;}.cls-27{fill:#4c8dc5;}.cls-27,.cls-54{opacity:0.77;}.cls-28{fill:#4387c2;}.cls-28,.cls-55{opacity:0.81;}.cls-29{fill:#3a82bf;}.cls-29,.cls-56{opacity:0.85;}.cls-30{fill:#317cbc;}.cls-30,.cls-57{opacity:0.88;}.cls-31{fill:#2876b9;}.cls-31,.cls-58{opacity:0.92;}.cls-32{fill:#1f71b6;}.cls-32,.cls-59{opacity:0.96;}.cls-33{fill:#166bb3;}.cls-34{opacity:0.7;}.cls-35{fill:#fef5f6;}.cls-36{fill:#fdeced;}.cls-37{fill:#fce2e4;}.cls-38{fill:#fbd9db;}.cls-39{fill:#facfd2;}.cls-40{fill:#f9c6c9;}.cls-41{fill:#f7bcbf;}.cls-42{fill:#f6b2b6;}.cls-43{fill:#f5a9ad;}.cls-44{fill:#f49fa4;}.cls-45{fill:#f3969b;}.cls-46{fill:#f28c92;}.cls-47{fill:#f18389;}.cls-48{fill:#f07980;}.cls-49{fill:#ef6f77;}.cls-50{fill:#ee666e;}.cls-51{fill:#ed5c65;}.cls-52{fill:#ec535c;}.cls-53{fill:#eb4953;}.cls-54{fill:#e93f49;}.cls-55{fill:#e83640;}.cls-56{fill:#e72c37;}.cls-57{fill:#e6232e;}.cls-58{fill:#e51925;}.cls-59{fill:#e4101c;}.cls-60{fill:#e30613;}.cls-61{fill:url(#radial-gradient-2);}.cls-62{mix-blend-mode:soft-light;fill:url(#radial-gradient-3);}.cls-63{mask:url(#mask);}.cls-64{fill:url(#linear-gradient-3);}.cls-65{fill:url(#linear-gradient-4);}.cls-66{fill:gray;}.cls-67{fill:#a6a6a6;}.cls-68{fill:#a8a8a8;}.cls-69{fill:url(#radial-gradient-4);}.cls-70{fill:url(#linear-gradient-5);}.cls-71{fill:url(#linear-gradient-6);}.cls-72{fill:url(#linear-gradient-7);}.cls-73{fill:url(#linear-gradient-8);}.cls-74{fill:url(#linear-gradient-9);}.cls-75{fill:url(#linear-gradient-10);}.cls-76{fill:url(#radial-gradient-5);}.cls-77{fill:#26193b;}</style><linearGradient id="linear-gradient" x1="150" y1="200" x2="150" gradientUnits="userSpaceOnUse"><stop offset="0"/><stop offset="0.03" stop-color="#0c0c0c"/><stop offset="0.26" stop-color="#727272"/><stop offset="0.44" stop-color="#bebebe"/><stop offset="0.57" stop-color="#ededed"/><stop offset="0.64" stop-color="#fff"/></linearGradient><radialGradient id="radial-gradient" cx="156.85" cy="103.4" r="246.62" gradientTransform="translate(0 11.2) scale(1 0.89)" gradientUnits="userSpaceOnUse"><stop offset="0" stop-color="#fff"/><stop offset="0.21" stop-color="#f9f9fa"/><stop offset="0.5" stop-color="#e7e7ee"/><stop offset="0.83" stop-color="#c9c9d8"/><stop offset="1" stop-color="#b8b8cc"/></radialGradient><linearGradient id="linear-gradient-2" x1="150" y1="197.39" x2="150" y2="-18.29" gradientTransform="translate(0 106.5) scale(1 0.47)" gradientUnits="userSpaceOnUse"><stop offset="0" stop-color="#84879c"/><stop offset="0.01" stop-color="#86899e"/><stop offset="0.34" stop-color="#babcc7"/><stop offset="0.62" stop-color="#e0e0e6"/><stop offset="0.85" stop-color="#f7f7f8"/><stop offset="0.99" stop-color="#fff"/></linearGradient><radialGradient id="radial-gradient-2" cx="163.42" cy="89.53" r="286.59" gradientTransform="translate(0 11.2) scale(1 0.89)" gradientUnits="userSpaceOnUse"><stop offset="0" stop-color="#fff4ed"/><stop offset="0.37" stop-color="#faf2f0"/><stop offset="0.84" stop-color="#eaebfa"/><stop offset="1" stop-color="#e3e8ff"/></radialGradient><radialGradient id="radial-gradient-3" cx="170.99" cy="104.09" r="216.43" gradientTransform="translate(0 11.2) scale(1 0.89)" gradientUnits="userSpaceOnUse"><stop offset="0" stop-color="#d8735f"/><stop offset="0.13" stop-color="#d3715e"/><stop offset="0.3" stop-color="#c36c5b"/><stop offset="0.49" stop-color="#a96355"/><stop offset="0.69" stop-color="#85574e"/><stop offset="0.9" stop-color="#584845"/><stop offset="1" stop-color="#404040"/></radialGradient><mask id="mask" x="0" y="0" width="300" height="209.84" maskUnits="userSpaceOnUse"><rect class="cls-1" width="300" height="200"/></mask><linearGradient id="linear-gradient-3" x1="36.72" y1="-12.37" x2="76.75" y2="-12.37" gradientTransform="matrix(1, 0, 0, -1, 0, 160.45)" gradientUnits="userSpaceOnUse"><stop offset="0" stop-color="#646566"/><stop offset="1" stop-color="#979899"/></linearGradient><linearGradient id="linear-gradient-4" x1="76.75" y1="-12.37" x2="116.79" y2="-12.37" gradientTransform="matrix(1, 0, 0, -1, 0, 160.45)" gradientUnits="userSpaceOnUse"><stop offset="0" stop-color="#4e4f4f"/><stop offset="0.25" stop-color="#464747"/><stop offset="0.63" stop-color="#313232"/><stop offset="1" stop-color="#171717"/></linearGradient><radialGradient id="radial-gradient-4" cx="95.71" cy="173.64" r="47.83" gradientTransform="translate(-52.84 119.91) scale(1.36 0.14)" gradientUnits="userSpaceOnUse"><stop offset="0" stop-color="#332a2a"/><stop offset="0.14" stop-color="#6f5c5c"/><stop offset="0.25" stop-color="#977d7d"/><stop offset="0.3" stop-color="#a68a8a"/><stop offset="0.33" stop-color="#b19999"/><stop offset="0.4" stop-color="#c9b8b8"/><stop offset="0.48" stop-color="#ddd2d2"/><stop offset="0.57" stop-color="#ece6e6"/><stop offset="0.67" stop-color="#f7f4f4"/><stop offset="0.79" stop-color="#fdfdfd"/><stop offset="1" stop-color="#fff"/></radialGradient><linearGradient id="linear-gradient-5" x1="50.56" y1="41.76" x2="82.93" y2="74.13" gradientTransform="matrix(1, 0, 0, 1, 0, 0)" xlink:href="#linear-gradient-3"/><linearGradient id="linear-gradient-6" x1="52.72" y1="96.31" x2="72.74" y2="76.29" gradientUnits="userSpaceOnUse"><stop offset="0" stop-color="#262626"/><stop offset="0.25" stop-color="#353535"/><stop offset="0.7" stop-color="#4a4a4a"/><stop offset="1" stop-color="#525252"/></linearGradient><linearGradient id="linear-gradient-7" x1="36.72" y1="116.89" x2="76.75" y2="116.89" gradientTransform="matrix(1, 0, 0, 1, 0, 0)" xlink:href="#linear-gradient-3"/><linearGradient id="linear-gradient-8" x1="70.57" y1="74.13" x2="102.95" y2="41.76" gradientTransform="matrix(1, 0, 0, 1, 0, 0)" xlink:href="#linear-gradient-4"/><linearGradient id="linear-gradient-9" x1="80.77" y1="76.29" x2="100.78" y2="96.31" gradientUnits="userSpaceOnUse"><stop offset="0" stop-color="#303030"/><stop offset="0.28" stop-color="#282828"/><stop offset="0.71" stop-color="#131313"/><stop offset="1"/></linearGradient><linearGradient id="linear-gradient-10" x1="76.75" y1="116.89" x2="116.79" y2="116.89" gradientTransform="matrix(1, 0, 0, 1, 0, 0)" xlink:href="#linear-gradient-4"/><radialGradient id="radial-gradient-5" cx="144.26" cy="89.53" r="286.59" xlink:href="#radial-gradient-2"/></defs><title>top</title><g class="cls-2"><g id="Layer_1" data-name="Layer 1"><rect class="cls-3" width="300" height="200"/><g class="cls-4"><path class="cls-5" d="M290,186.84a1.48,1.48,0,0,0-.56.12l-18.85-37.21,2-8.16,6.44-3,.24-.11.86-.4-.37,0a1.49,1.49,0,0,0,.27-.86,1.51,1.51,0,0,0-1.29-1.49l1.33-23.09a1.51,1.51,0,1,0-1.19-2.46L263.66,99.53l2.62-15,12.83-13.36a1.48,1.48,0,0,0,.94.34,1.51,1.51,0,1,0-1.5-1.5s0,0,0,.08l-8.64,1.18a1.56,1.56,0,0,0-.62-1l1.36-23.36a1.52,1.52,0,0,0,.78-1.32,1.42,1.42,0,0,0-.06-.42l17.51-13.29a1.48,1.48,0,0,0,1.11.51,1.51,1.51,0,1,0-1.5-1.51c0,.06,0,.11,0,.16L256.69,37.3l-3.12-1.92,1.71-18.71a1.51,1.51,0,1,0-1.56-1.5,1.49,1.49,0,0,0,.8,1.31L243.67,29.29l-12.34-7.6a1.51,1.51,0,1,0-2,.65l-6.65,15.51-22-10.18-.53-12.52a1.53,1.53,0,1,0-1.48-.73l-10.53,7.45L152.24,5.3a.88.88,0,0,0,0-.16,1.51,1.51,0,1,0-3,0,1.42,1.42,0,0,0,.33.92L106.69,28.84a1.5,1.5,0,0,0-2.91.54c0,.05,0,.1,0,.15L86,32.9,71.43,20a1.64,1.64,0,0,0,.09-.5,1.52,1.52,0,1,0-.43,1l7.25,13.78L51.19,39.48,37,17.42a1.46,1.46,0,0,0,.21-.75,1.51,1.51,0,1,0-1.51,1.51l.16,0,3.34,17.71.88,5.7L21,45.19a1.5,1.5,0,1,0-1.44,1.91,1.47,1.47,0,0,0,1.1-.49l18.92,14.7L18.74,78.55a1.43,1.43,0,0,0-.72-.19,1.5,1.5,0,1,0,0,3h.18l7.25,35.9L10.87,134.47a1.46,1.46,0,0,0-.87-.28,1.51,1.51,0,1,0,.73,2.81L21.6,153.08a1.51,1.51,0,0,0-.57,1.17,1.53,1.53,0,0,0,.91,1.38l-9.86,19a1.54,1.54,0,0,0-.58-.12,1.51,1.51,0,1,0,1.5,1.6l33.14-.7,17.93,15.54a1.33,1.33,0,0,0-.08.45,1.51,1.51,0,1,0,1.51-1.51,1.48,1.48,0,0,0-1,.36l-9.37-15,2.38-.05A1.5,1.5,0,1,0,58.9,173h-.13l-1.22-9.82L121.32,190l4.88,2.63a1.23,1.23,0,0,0,0,.2,1.51,1.51,0,1,0,3,0,1.46,1.46,0,0,0-.37-1l6.87-19.95,41.82,5.41c0,.05,0,.09,0,.13a1.5,1.5,0,0,0,3,.32l14.58-4.75-5.19,8.61a1.46,1.46,0,0,0-.66-.16,1.5,1.5,0,1,0,1.51,1.5,1.45,1.45,0,0,0-.16-.65l11.13-6.51a1.5,1.5,0,0,0,2.72-.74h42.07a1.49,1.49,0,0,0,2.3,1.14l9.55,14.66a1.44,1.44,0,0,0-.08.46,1.5,1.5,0,0,0,1.34,1.49l.06.08.16.24.08-.32a1.51,1.51,0,0,0,1.37-1.49v0l27.27-2.71a1.5,1.5,0,1,0,1.48-1.78Zm-19.59-37.43-2.32-4.59,4.21-3Zm-10.67,40.44h-.12L254,155.73a1.51,1.51,0,0,0,1.24-1.48,1.94,1.94,0,0,0,0-.24l12.67-9,2.44,4.81-10,40.19A1.63,1.63,0,0,0,259.74,189.85ZM138.87,165.78a1.49,1.49,0,0,0-.87-1.2l16.14-9L164.76,165ZM57.16,160,54.3,137l18.11,25.39a1.56,1.56,0,0,0-.38.88ZM24,154.08A1.52,1.52,0,0,0,23,152.81l4.92-23.48,1,4.92a1.5,1.5,0,1,0,1.92,1.44,1.79,1.79,0,0,0,0-.23l6.53-1.57,1.34,4.59ZM19.06,81l16.78,9.33-3.68,17.49-.86,1.93a1.52,1.52,0,0,0-.49-.09,1.7,1.7,0,0,0-.45.08L18.71,81.19A1.56,1.56,0,0,0,19.06,81Zm86.22-50.07a1.51,1.51,0,0,0,1.37-.88l6,4.07L99.92,45.23,89.3,35.82,103.94,30A1.49,1.49,0,0,0,105.28,30.88ZM150.75,6.64a1.48,1.48,0,0,0,.83-.25l17.9,22.86-22-4.4,3.14-18.22Zm19,22.91L172.4,33,156.08,44.52,145.6,35.78l1.84-10.68ZM277,137.2a1.56,1.56,0,0,0,.14.61l-3.55-.34,6.18-24.87h0l-1.33,23.1A1.5,1.5,0,0,0,277,137.2Zm2.53-24.66-6.19,24.91-9.49-.91-6.48-12.79,1.76-1.21a1.52,1.52,0,0,0,.57.11,1.5,1.5,0,0,0,.38-3l2.23-12.7,16.22,3.89a1.79,1.79,0,0,0,0,.23A1.51,1.51,0,0,0,279.57,112.54Zm-11.8,32.2-12.63,9a1.52,1.52,0,0,0-1.42-1,1.49,1.49,0,0,0-1.11.51l-2-1.51L267.39,144Zm-.15-.85,3.8-1.76L268,144.59Zm-17.23,7.68-15.87-12,7.11-4.91,22.1,2.11,3.54,7Zm-26.25,10.37a1.52,1.52,0,0,0-1.17.56L209.34,157l11.45-7.92,11.51,1.85,4.5,6.91L225.58,163A1.52,1.52,0,0,0,224.14,161.94Zm-23.42.71-1.13-6,2.24-2.38,3.67,1.48L201.74,162Zm.7-.17-.56.92-.09-.48ZM179.07,176l-.46-11.11,7-.2-5.51,11.41.23.11,5.56-11.53,5.91-.17-11.51,12.15A1.47,1.47,0,0,0,179.07,176Zm-43.22-10.22-18.16-8.89-1.3-5,10.31-2.91L137,164.49a1.5,1.5,0,0,0-1.15,1.28ZM54.23,136.51l-.13-1.07,2.33-5.25L67,132.37a1.47,1.47,0,0,0,.61,1.19l4.89,24.38.65,4.05a1.39,1.39,0,0,0-.56.27Zm-24.92-2.32-.17,0L28,128.71l3.26-15.53,6,20.47-6.52,1.57A1.5,1.5,0,0,0,29.31,134.19Zm2.08-21.53,0-.17a1.56,1.56,0,0,0,.85-1l6.08,21.93-.86.21ZM267.18,72.32l-10.32,8,2.7-7.1L267,71.9A1.33,1.33,0,0,0,267.18,72.32Zm-10.7,8.34-7.59,5.91L250,75l9.32-1.72Zm-14.92,53.75-15.9-1.52-2.1-1.59L234.23,120l21.55,1,1.31,2.59Zm15.65-10.52,6.39,12.62L242,134.45Zm-79.54,18-.08-2.14,6.65-1.12-6,3.34Zm.18.28-.16.09v-.12Zm-67.51,11.1-16.14-7.9,7.49-6.61,11.58,2,2.82,10.91Zm5.81-1.38,1.25,4.83-6.72-3.29ZM75,163.23a1.58,1.58,0,0,0-.28-.68l19.27-17,16,7.82ZM56.53,130l.35-.8,8.45-2,2.32,4a1.48,1.48,0,0,0-.62,1Zm32.71-73.5a1.41,1.41,0,0,0,.7-.19l2.94,4.57,11.29,18a1.51,1.51,0,0,0-.39,1v0L82.53,82l-2.82-4.24,9.47-21.32Zm38.44-33.94a1.35,1.35,0,0,0,.5-.09l13.58,30.09a1.51,1.51,0,0,0-.65.6L124.06,41.53l3.48-19Zm50.89,18.1,7.77,7.18-7,.91L177.9,41A1.44,1.44,0,0,0,178.57,40.62Zm41.5,3.23-4.63,10.79-7.91,5.73-5.68-4-.44-10.18ZM248.4,89.19l-1.22,13.39a1.42,1.42,0,0,0-.55.59l-8.53-7.88,9-7Zm-1.09-1.07,1.28-1-.16,1.78Zm-51.51,48.3-.66-3.54L203,128.5l-3.52,7.3Zm3.57-.35-2.62,5.43-.9-4.83Zm-42.48,2.49-6.21-1,3.19-2.69,6.12,2.47Zm3.44-1.09,6.73,2.72-9.69-1.56ZM48.71,127.05,51,112.23l1.83,14.63-2.94,1.34A1.49,1.49,0,0,0,48.71,127.05Zm1.15,1.41,3-1.34.26,2.12-3.21-.66s0-.05,0-.08S49.86,128.48,49.86,128.46Zm1.23-17.14,1-6.95,8.77,15.12-2,4.62L53,126.76Zm-7.84-25,4.47-.06L48,88.81l-4.86-2.12A1.11,1.11,0,0,0,43.25,86.32ZM48,86.26l6.67-.08-.78,5.18L48.3,88.93Zm161.45,32.33a1.43,1.43,0,0,0-.24-.77L229.47,102l9.45,6.29L219.5,119.08Zm-66.87,25,.28-7,7.27,1.17-7.08,6A1.21,1.21,0,0,0,142.55,143.57Zm.29-7.27.22-5.8,10.55,4.26-3.26,2.75ZM70,132.19a1.1,1.1,0,0,0-.06-.26l24-9.33,14.83,8.25a.88.88,0,0,0,0,.16,2,2,0,0,0,0,.24Zm-3.65-25-5.32,12L52.2,104l.64-4.24ZM52.88,99.47l1.18-7.75,16.07,7L66.45,107Zm13.69,7.89,13.12,7.3L62.83,122.3l-1.64-2.83Zm.1-.23,3.69-8.3,22.53,9.84L80,114.53ZM182.49,66.85l1.93,10.27-2.07,1.49a1.51,1.51,0,0,0-2.2.62L143.8,54.42a1.56,1.56,0,0,0,.1-.53,1.66,1.66,0,0,0,0-.33l19.67-2.51ZM163.87,51l15.28-1.95,3.27,17.41Zm-53.57,78.5a1.52,1.52,0,0,0-1.08.45l-6.81-10.63,3.67-1.42,5.75,8.64-1.25,3A1.27,1.27,0,0,0,110.3,129.51ZM96,109.74l-2.45-1.08,1.37-.62ZM90.68,101l7,5.45L95,107.72Zm4.42,6.9,2.81-1.28,1.45,1.13,3.21,4.83-6.2-2.7ZM201.46,84.1,186,84.29l-.68-3.61,16.08,2.88a.78.78,0,0,0,0,.14A1.76,1.76,0,0,0,201.46,84.1Zm-15.7.19-1.33,0-2.13-3.18a1.5,1.5,0,0,0,.66-.88l2.12.38Zm.05.25.48,2.55-1.7-2.53Zm-26.28,7.84-13.18-7.11a2,2,0,0,0,0-.24l13.22-.16,3.16,5.89Zm3.36-1.4,2.41,4.52-5.5-3ZM143.54,54.85l15,28-12.18,1.67a1.52,1.52,0,0,0-1.46-1.18l-2.17-28A1.53,1.53,0,0,0,143.54,54.85Zm15.13,28.26.81,1.51-13,.16ZM144.9,86.38a1.51,1.51,0,0,0,1.36-.87l13,7-15,7.5.54-13.65Zm15-1.51,15-.19-11.95,6Zm-.14-.25-.82-1.54L180,80.19a1.5,1.5,0,0,0,1.47,1.17h.07l-6.13,3.06Zm22.39-3.27,2,3-8.1.11ZM183,80s0-.09,0-.14a1.46,1.46,0,0,0-.46-1.08l1.92-1.39.56,3Zm-3-.06-21.2,2.9L143.73,54.68l36.33,24.8a1.59,1.59,0,0,0-.06.38S180,79.91,180,79.94Zm-36.24,5.92a1.54,1.54,0,0,0,.77.47L144,100.15l-26.39,13.19,2.53-6.07L143.2,86.12ZM112.31,116h-.52a1.53,1.53,0,0,0-.31-.78l8.22-7.55-2.43,5.84Zm4.81-2.12-.87,2.09-3.37,0ZM109,115.42l-6-2.61-3-4.53,9.06,7Zm-.1.23a1.51,1.51,0,0,0-.09.48,1.6,1.6,0,0,0,0,.23l-3,.72-2.59-3.89Zm-.38,1-2.32.9-.2-.29Zm3.29-.45h0Zm8.58-9.53,5.28-12.64,16.82-7.63Zm-.44.4L111.31,115a1.4,1.4,0,0,0-.62-.34l2.76-15.07,11.86-5.39Zm-9.49,7.52h-.22l-1.77-12.76,4.72-2.14Zm-.47,0a1.51,1.51,0,0,0-.77.45l-9.65-7.5-.87-1.3,9.54-4.33Zm-11-7.53-.76-.59.28-.13Zm3.9,5.87,2.75,4.13-4,1-5-7.81Zm2.89,4.36.22.32-3.67,1.43-.51-.79Zm.6.44,2.63-1a1.52,1.52,0,0,0,1.35.85,1.54,1.54,0,0,0,.6-.13l4,1.63-3,7.14Zm4.85-.46a1.45,1.45,0,0,0,.56-.79l.64-.32,3.77,0-1.12,2.7Zm5.24-1.14,27-.2-.55,14.13L115.25,119Zm.11-.25.94-2.27L144,100.44l-.6,15.32Zm27.72-15.65,15.29-7.64,6,3.23,10.16,19a1.52,1.52,0,0,0-.55.65l-31.49.24Zm32.26,14.32a1.46,1.46,0,0,0-.6.12l-10-18.63L184.25,106l-7.19,8.73A1.47,1.47,0,0,0,176.5,114.63ZM165.7,95.71l-2.59-4.84,12.4-6.2,8.79-.11,2.11,3.15,2.39,12.77-4.38,5.33Zm23.16,5.09,1.55,8.25-5.77-3.12Zm.21-.25,3.27-4,14.15,21.14-15.8-8.52Zm-.06-.32-2.25-12,5.43,8.12Zm-2.37-12.61-.58-3.08,15.49-.19a1.36,1.36,0,0,0,.24.35l-9.43,11.46Zm15.2-5L190.38,73.1,202,64.72l.75,17.5A1.51,1.51,0,0,0,201.84,82.65Zm-.16.19a1.61,1.61,0,0,0-.22.48l-16.17-2.91-.6-3.18,5.48-4Zm-17-5.89-1.85-9.84,7.18,6Zm-43-21.78L133.4,74.86l-8.78-7.77,16.92-12Zm.23.11a1.46,1.46,0,0,0,.55.11h0l2.12,28a1.52,1.52,0,0,0-.82.56l-10.11-9Zm1.73,28.92a1.47,1.47,0,0,0-.17.62l-14,.18,4.05-9.72Zm-.15.87a1.46,1.46,0,0,0,.11.41l-.47.43-17.27,7.83,3.54-8.49Zm-18,8.82-12,5.43L116,85.41l13-.16Zm-12.23,5.55-4.8,2.18-2.23-16.08,9.6-.12Zm-5,2.29-9.64,4.37L85.05,85.8l20.89-.26Zm-9.87,4.48-.37.16-7.67-6L80.93,85.85l3.82,0ZM89.68,100,75,88.5l1.15-2.59,4.54-.06Zm.4.63,4.65,7.25-1.54.7L70.46,98.6l4.38-9.86Zm3.11,8.22,3,1.31,5.16,8L91,120.66l-10.77-6Zm8.31,9.59.53.82-8,3.12-2.67-1.49Zm.67,1,6.89,10.74a1.69,1.69,0,0,0-.2.43l-14.58-8.11Zm8.66,10.19,1.16-2.8,3.38,5.08-3.6-.58a1.53,1.53,0,0,0,0-.3A1.5,1.5,0,0,0,110.83,129.61Zm1.28-3.08,3-7.3,27.66,11.17-.22,5.86-26.88-4.32Zm31,3.71.56-14.23,31.41-.24a1.49,1.49,0,0,0,0,.36,1.46,1.46,0,0,0,.1.52l-21.26,17.93Zm34.22-15.38,7.19-8.73,6,3.23L191.9,117l-14-1.34A1.49,1.49,0,0,0,177.29,114.86Zm13.46-5.34L206.54,118a2,2,0,0,0-.09.33L192.16,117Zm15.67,9.1v0a1.55,1.55,0,0,0,.07.43l-13,5.1-1.29-6.91Zm2.6-1a1.59,1.59,0,0,0-.51-.37l7.85-24,12.89,8.57Zm-.75-.44a1.34,1.34,0,0,0-.35,0,1.5,1.5,0,0,0-1.15.55L192.5,96.38,202,84.87a1.48,1.48,0,0,0,.94.34,1.5,1.5,0,0,0,.86-.28l12.37,8.22ZM204,84.76a1.45,1.45,0,0,0,.44-1.06,1.71,1.71,0,0,0,0-.31l15.91-2.92L216.22,92.9Zm-1-2.56-.76-17.65,1.28-.92L209.29,69l-5.73,13.35A1.53,1.53,0,0,0,203,82.2Zm-.77-18-.08-1.88,1.18,1.08ZM202.09,62l-.23-5.29,5.46,3.81-3.84,2.77Zm-.26-.24L187,48.06l2.08-.26,12.53,8.74Zm0,.36.1,2.29-11.76,8.52-7.46-6.22L179.4,49l7.27-.92ZM141.34,55l-16.91,12-.13-.12,16.82-12.12A2.09,2.09,0,0,0,141.34,55ZM133.29,75.1,129.16,85l-13.07.16,2.52-13.81,5.8-4.11ZM115.83,85.16l-9.67.13-.55-4a1.52,1.52,0,0,0,1.18-1.47.51.51,0,0,0,0-.13l11.55-8.17Zm-10.55-3.8h.08l.55,3.93-21,.26-2.19-3.3,21.12-2.12A1.5,1.5,0,0,0,105.28,81.36Zm-20.7,4.19-3.81,0-1.9-3,3.53-.36Zm-4.1,0-4.27.06,1.28-2.89,1.1-.11Zm-4.55.06-4.56.06L68.7,83.64l8.51-.85Zm-.11.25-1.08,2.43L71.68,86Zm-1.18,2.67L70.23,98.5l-16.14-7,.8-5.29L71.28,86Zm-20.82,3-1.17,7.73-3.28-1.82-1-8.3ZM49.3,99l-1-1.78.87.48Zm.11-1.15,3.2,1.78-.61,4-2.38-4.1Zm2.53,6.2-1,6.38L49.7,100.16Zm9.12,15.74,1.54,2.65L59.2,124Zm1.67,2.86,2.47,4.28-8.19,2,2-4.58Zm.22-.1,17-7.71,10.69,5.94-25.19,6.08Zm28-1.59,2.72,1.51-23.84,9.25a1.49,1.49,0,0,0-1.34-.85,1.51,1.51,0,0,0-.64.15l-2.28-3.93Zm-21.3,12.36,31.71,5.42L94,145.26,69.63,133.34Zm.15-.23a1.32,1.32,0,0,0,.18-.62l38.88-.94a1.36,1.36,0,0,0,.22.41l-7.48,6.59Zm39.44-1a1.49,1.49,0,0,0,1.83.19l2.11,8.19-11.26-1.93Zm2,0a1.78,1.78,0,0,0,.31-.4l5.14,2.26,5.33,8-8.62-1.47Zm.61-.54,3.64.59.94,1.42Zm4,.64,26.68,4.29-.28,7.05a1.49,1.49,0,0,0-1.22.78l-24.15-10.56Zm27.43,11.66-.08-.06,7.18-6,6,1Zm10.76-9.19,21.11-17.8a1.49,1.49,0,0,0,1.23.74l.53,13-16.63,6.54Zm22.59-17.07a1.5,1.5,0,0,0,1.32-1.49,1.79,1.79,0,0,0,0-.23l14,1.34,1.31,7-16,6.3Zm16.63,6.9,1.55,8.23-10,5.52-7.32,1.24-.36-8.67Zm1.6,8.49.64,3.46-9.91,1.67Zm.18-.39-1.54-8.2,13-5.12a1.47,1.47,0,0,0,.58.63l-3.95,8.18ZM207.39,120a1.32,1.32,0,0,0,.53.11,1.59,1.59,0,0,0,.39-.06l4,3-8.68,4.82Zm1.19-.05a1.53,1.53,0,0,0,.83-1.15l9.67.47L212.51,123Zm11-.66,14.34.69-10.54,11.13-10.63-8Zm.41-.23,19.19-10.65,3.5,2.33-8.53,9Zm19.44-10.78,7.13-4a1.52,1.52,0,0,0,1.26,1l-5,5.24Zm7.12-4.9a1.32,1.32,0,0,0-.08.44,1,1,0,0,0,0,.25l-7.31,4-9.49-6.31,8.22-6.4Zm-17.07-1.71-13-8.66,4.13-12.63.89-.16,16.25,15Zm-8.8-21.56.16-.48.41.37Zm-.28,0-16.08,3a1.49,1.49,0,0,0-.52-.67l5.7-13.29,11.14,10.29Zm-11-11.44-5.72-5.28,3.86-2.8,4.1,2.86Zm-1.64-8.24,7.5-5.43-3.52,8.21Zm-6.16-4.29-12.15-8.48,11.72-1.49ZM141,53.34a1.63,1.63,0,0,0-.1.55,1.56,1.56,0,0,0,.11.57L124.1,66.63l-4-3.52L124,41.8ZM123.9,66.78l-5.13,3.69,1.3-7.08Zm.19.17.13.12L118.68,71l0-.17Zm-5.71,4.25L106.9,79.33,118.41,71Zm-14,7.49-.85-1.36.87,1.34ZM82.25,82l-3.54.35-.62-1L79.59,78Zm-3.82.38-.82.08.36-.81Zm-1.11.11-8.91.89L58.24,75.51l11.08-7.3,8.49,13.23Zm-9.27.93L55.11,84.75l1.2-8L58,75.66Zm.29.22,2.62,2-16,.2.14-.91ZM54.68,85.93,47.94,86l0-.29L54.81,85Zm-7,.08-3.06,0,3-.3Zm-4.61.91,5,2.18,1,8.27L48,96.77l-5.4-9.33A1.44,1.44,0,0,0,43.08,86.92Zm4.52,9.61-4.43-2.46-1-6.42.22-.08Zm.24.42,1.54,2.65,1.46,11.71L48.46,127h-.2l-5-32.63Zm-1,31.55a1.49,1.49,0,0,0,.32.92l-2.24,2.37-6.34,1.53-6-21.75,14.94,15.7A1.5,1.5,0,0,0,46.86,128.5Zm-2.23,3.62-4.91,5.23-1-3.79Zm.44-.11,2.76-.66-3.32,23.3-4.71-17Zm.31-.33,1.95-2.07h0A1.5,1.5,0,0,0,48,130l-.16,1.11Zm2.9-1.68h.08a1.47,1.47,0,0,0,.77-.22l.6.84-1.6.39Zm1-.35a1.46,1.46,0,0,0,.5-.82l3.27.68,0,.3-3.15.76ZM53.05,127l5.65-2.57-2,4.5-2.34.56-1-.21Zm1.32,2.75,1.81.37L54,135l-.62-5Zm.57-.14,1.64-.39-.3.67Zm13.57,4.22h.11l2.84,17.58-3.55-17.69A1.46,1.46,0,0,0,68.51,133.85Zm.36,0a1.39,1.39,0,0,0,.56-.27l24.32,11.91L74.56,162.36a1.49,1.49,0,0,0-1-.42l-.81-4Zm44.67,7,8.74,1.5,4.27,6.42-10.22,2.88Zm9.08,1.55,16.53,2.83-12.34,3.47Zm-.19-.28-5.25-7.9L141,144.57l0,.09-1.24.35Zm18.47,2.87s0,.08,0,.12a.78.78,0,0,0,0,.16l-.63-.1Zm2.63-.86,13.38-5.25,11.2,1.79.87.36-25.1,4.25a1,1,0,0,0,0-.17A1.56,1.56,0,0,0,143.53,144.07Zm24.64-3.7-7.5-3,16.3-6.4.36,8.61-6.94,1.18Zm9.17-.57.08,2.06-6.26-1Zm7.65-1.29,10.61-1.8,1,5.17-1.37,2.83-16.59-2.66Zm11.66,3.78.51,2.74-1.7-.27Zm.56,3,1.38,7.36-5.81-2.34,2.57-5.32Zm.26,0,10.8,1.74-6.5,6.87-2.9-1.18Zm11.1,1.79,1.92.31-4.86,8.07L202,154Zm.21-.22,5.58-5.88-3.73,6.18Zm-.3-.05-11.06-1.78-.59-3.15,2.84-5.9,18.5-3.13a1.5,1.5,0,0,0,.57.84L215,140Zm10.48-13a1.46,1.46,0,0,0,.66.16,1.5,1.5,0,0,0,1.24-.65l.16.24-5.26,5.56Zm2-.74a1.46,1.46,0,0,0,.11-.41l.71.06-.62.66Zm.12-.67a1.5,1.5,0,0,0-3,.07s0,.08,0,.12l-18.32,3.11,3.6-7.46,9.08-5,10.69,8.08L222,132.54Zm2.27-1,1.79,1.36-2.82-.27Zm32.68-10.38,2.17.1a1.5,1.5,0,0,0,.68,1.2l-1.62,1.12Zm-.13-.26L255,119l2.94,2Zm-.29,0-21.2-1,8.42-8.88,11.7,7.78ZM243,110.73l4.89-5.15,6.41,12.67Zm4.92-8.37a1.46,1.46,0,0,0-.52.09l1.19-13.1,3.59,2.51-4,10.52Zm.7-13.29.2-2.16,7.45-5.8-4,10.5Zm0-2.29L247.09,88,233,78.14l16.69-3.07Zm-1.74,1.35-9,7L221.77,80.2l10.88-2ZM221.54,80l-.63-.59,2.5-7.64,9,6.24Zm-.84-.77L209.59,68.94l2.25-5.26,11.36,7.93Zm-8.76-15.77,3.7-8.64,16.22-11.75a1.59,1.59,0,0,0,.55.41l-9.13,27.89Zm19.77-20.59-15.87,11.5,4.51-10.54,11.18-1.43A1.58,1.58,0,0,0,231.71,42.86Zm-45.05,4.9-7.24-6.69,9.22,6.43Zm-9.16-6.68.15,0,1.44,7.68-15.53,2-7.28-6.06,16.27-11.52,4.07,5.19a1.48,1.48,0,0,0-.63,1.21A1.52,1.52,0,0,0,177.5,41.08Zm-14.28,9.71-19.05,2.47,11.9-8.42Zm-19.47,2.46a1.53,1.53,0,0,0-1-.83l2.82-16.35,10.32,8.6Zm-1.27-.88a.12.12,0,0,0-.12,0,.12.12,0,0,0-.07.07,1.35,1.35,0,0,0-.29,0L128.41,22.33a1.46,1.46,0,0,0,.34-.26l16.57,13.81ZM127.29,22.46l-3.45,18.92-3-2,6.43-16.88Zm-3.5,19.19L119.9,62.91l-6-5.31,6.86-18ZM119.85,63.2l-1.37,7.48-11.84,8.53a1.55,1.55,0,0,0-.71-.7l7.87-20.66ZM105.7,78.42a1.47,1.47,0,0,0-.42-.06,1.52,1.52,0,0,0-.7.18L93.09,60.7,90.2,56.09A1.47,1.47,0,0,0,90.74,55a1.52,1.52,0,0,0-.38-1l9.56-8.39,13.68,12.1Zm-16.78-22-9.37,21.1L72.13,66.36,88.06,55.88A1.46,1.46,0,0,0,88.92,56.42ZM79.43,77.79l-1.5,3.38-8.4-13.09,2.39-1.58Zm-10-9.92L59.9,53.06l.58-3.79,11.3,17Zm-.21.13L58,75.35l-1.34-1,3.16-20.87ZM57.81,75.5l-1.44,1,.28-1.85Zm-1.73,1.13-8.6,5.67-2-16.42,11,8.54ZM56,77l-1.18,7.82-7,.7-.36-2.9ZM47.62,85.5l-4.38.44a1.54,1.54,0,0,0-.16-.44l4.2-2.77Zm-5.86,2.22.18,0,1,6.22L39.45,92l1.93-4.34A1.59,1.59,0,0,0,41.76,87.72Zm1.18,6.51L48,127.05a1.43,1.43,0,0,0-.27.09L32.41,111l-.11-.11a1.6,1.6,0,0,0-.37-.8l.47-2.27,7-15.62ZM31.71,109.92a.78.78,0,0,0-.18-.11l.39-.87Zm6.71,23.7,1.1,3.95-.66.7-1.29-4.44Zm1.18,4.23,4.82,17.42-.06.49h-.09a1.53,1.53,0,0,0-.3,0l-5-17.23Zm5.08,17.41,3.41-24,1.79-.43L53.57,136l-8.76,19.72Zm5.47-24.47,3-.73.67,5.34-.16.35Zm3.75,5.09,0,.2-.07-.09ZM75,163.48l35.29-9.93,7.17,3.5,2.11,8.17L75,163.7A1.5,1.5,0,0,0,75,163.48Zm42.76-6.28,17.46,8.55-15.39-.52Zm19.6,7.24h-.07L127,148.86l12.77-3.59,1.24.21a1.49,1.49,0,0,0,2.47.66l10.51,9.31-16.27,9A2.58,2.58,0,0,0,137.38,164.44ZM143.6,146a1.58,1.58,0,0,0,.23-.47l25.59-4.33,6,2.4-21.21,11.77Zm26.29-4.88.5-.09,7,1.13v.3l-1.78,1Zm7.56,1.62.07,1.45-1.56-.62Zm.25-.14.55-.3,16.84,2.7-2.54,5.26-14.78-6Zm14.74,7.89-6.75,14-7.09.2-.82-20.11Zm-6.47,14,6.7-13.89,6,2.42.67,3.58L192,164.25Zm12.95-11.36,2.66,1.07-2.05,2.17Zm6.81,2.75,3.09,1.24-6.58,4.56Zm.14-.22,4.89-8.12,9.67,1.55-11.36,7.86Zm15.22-6.72,6.8-4.7,4.22,6.48Zm-.36-.05-9.83-1.58,4.26-7.07,6-6.34,6.6,10.13Zm.61-15.18.8-.84,3.43.33,8.52,6.44L228,143.81Zm4.7-.46,15.2,1.45-6.93,4.79Zm33.84-13.52-.14,0a1.51,1.51,0,0,0-1.47,1.21l-3.5-2.32-6.68-13.18a1.51,1.51,0,0,0,1.37-1.43l12.64,3Zm-10.44-16a1.45,1.45,0,0,0-.58-1l7.57-7.88,6.95,4.85-1.23,7.06Zm-.79-1.13-.19-.08,4-10.45,3.79,2.64Zm3.88-10.77,4.16-11,10.64-8.29a1.48,1.48,0,0,0,.72.43l-2,11.45-9.66,10.06ZM267,71.65,259.66,73l2.49-6.55,5.05,4.2a1.51,1.51,0,0,0-.27.86A.77.77,0,0,0,267,71.65ZM259.38,73,250,74.77l1.56-17.14,10.41,8.65Zm-9.67,1.77-17,3.13-9.22-6.43,9.16-28a1.34,1.34,0,0,0,.35.05,1.49,1.49,0,0,0,1.07-.46L251.3,57.44ZM234.23,42.94a1.49,1.49,0,0,0,.27-.86c0-.06,0-.11,0-.16l18.56-3.65-1.72,18.87Zm-2.72-1-.15-.07.15,0Zm-.46.06-10.51,1.36L222,40l8.32,1.66Zm-10.79,1.4L201.4,45.85,201,35.8,221.74,40Zm-19.11,2.47L189,47.45l-10.22-7.13a1.46,1.46,0,0,0,.21-.75,1.5,1.5,0,0,0-1.5-1.5,1.54,1.54,0,0,0-.67.16L172.76,33l3.16-2.24,24.79,5ZM172.6,32.83l-2.5-3.2,5.48,1.09ZM145.37,35.6,128.91,21.88a1.24,1.24,0,0,0,.21-.45l18.07,3.62ZM126.64,22.1a1.56,1.56,0,0,0,.4.27L120.63,39.2,113,34Zm-6.1,17.34-6.85,18-13.58-12,12.74-11.19Zm-20.81,6-9.55,8.39a1.49,1.49,0,0,0-1.46-.25L81.1,39.06,89,35.93ZM88.5,53.65a1.52,1.52,0,0,0-.76,1.17L61.88,47.39a2.83,2.83,0,0,0,0-.29,1.27,1.27,0,0,0-.07-.44l19-7.51Zm-28.1-5a1.49,1.49,0,0,0,1.4-1l25.94,7.45a1.5,1.5,0,0,0,.18.59L72,66.16,60.32,48.59l-.62,4.15L57.26,49l1.89-1A1.48,1.48,0,0,0,60.4,48.6Zm-.76,4.52-3.18,21L45.39,65.53l-1-8.07a1.51,1.51,0,0,0,.39-1,1.55,1.55,0,0,0-.13-.61L57,49.07ZM42.48,55.18l-1.86-12L42.87,55A1.71,1.71,0,0,0,42.48,55.18ZM43.27,58a1.84,1.84,0,0,0,.41-.06l-1,.79.16-.78A1.67,1.67,0,0,0,43.27,58Zm.9-.15.94,7.5-3.25-2.52.78-3.71Zm-2.53,4.81L40,61.31l2.38-2Zm.16.44,3.35,2.6,2.09,16.79-4.3,2.84a1.5,1.5,0,1,0-1.8,2.29l-1.91,4.3-3.11-1.73ZM39.12,92.11l-6.47,14.57L36.06,90.4Zm-9.18,20.23a1.48,1.48,0,0,0,.87.28,1.53,1.53,0,0,0,.3,0l0,.08L27.9,128.09l-2.18-10.77Zm8.8,26.42,5,17.1a1.5,1.5,0,0,0-.89.95L24.3,154.16Zm7,18.94,11.23,2.51.32,2.56-11.61-4.9Zm0-.24a1.36,1.36,0,0,0,0-.2,1.52,1.52,0,0,0-.78-1.32l8.75-19.69.25.36,2.91,23.33Zm73.9,8,1.11,4.29L76.06,164Zm.26,0,15.88.54.1,0a1.5,1.5,0,0,0,1.1,1.33l-1.47,4.27L121,169.79Zm34.46-10,21.31-11.83,1.85.75.82,20.22-13.23.38Zm24,9.39.46,11.11a1.44,1.44,0,0,0-.85.4L165.4,165.26Zm13.76-.4,6.21-.18L180.8,176.43Zm.24-.25,7-7.41,1.12,6-1.8,1.24Zm8.19-1.16.12.65-.16.27-1.35,0Zm1.38-1,7.17-5,13.73,5.54a1.45,1.45,0,0,0-.19.65L201,164l0-.22Zm-1.16,2.11,1.18,6.3-6.34,2.07,5-8.36Zm.25,0,21.63-.63c0,.06,0,.12,0,.18l-20.48,6.67Zm21.73-.21a0,0,0,0,1,0,0l-18.6,10.1a1.5,1.5,0,0,0-1.25-.68l-.15,0-.52-2.78Zm-18.47,10.34,18.6-10.1a1.5,1.5,0,0,0,2.55-.06l21.13,10.23a1.43,1.43,0,0,0-.09.41H204.4A1.31,1.31,0,0,0,204.28,174.37Zm42.39-.16L225.54,164a1.62,1.62,0,0,0,.1-.54c0-.05,0-.11,0-.16l11.3-5.22,10.2,15.66A1.65,1.65,0,0,0,246.67,174.21Zm-14-23.23,14.11,2.27L237,157.74Zm-.18-.28L228.1,144l6.21-4.29,15.82,12-3,1.37Zm17.91,1.16,2.1,1.59a1.34,1.34,0,0,0-.19.44l-4.68-.76Zm22-10.46-4.9,2.26L264,136.81l9.29.89Zm1.17-3.68,3.55.34-4.42,3.15Zm3.84.45a1.49,1.49,0,0,0,.89.51l-4.56,2.1Zm1.35-27.8a1.43,1.43,0,0,0-.13.28l-16.24-3.89,1.22-7Zm-15.33-11-6.83-4.76L266,84.85ZM278.93,71,266.36,84.08,268.3,73l.14,0a1.51,1.51,0,0,0,1.5-1.5l8.65-1.19A1.47,1.47,0,0,0,278.93,71Zm-9.87-.86a1.6,1.6,0,0,0-.62-.13,1.52,1.52,0,0,0-1.08.45l-5.12-4.25L269.53,47a1.41,1.41,0,0,0,.41.07,1.77,1.77,0,0,0,.46-.08Zm19.5-38.84a1.71,1.71,0,0,0,.17.39L271.28,44.92a1.5,1.5,0,0,0-1.34-.83,1.52,1.52,0,0,0-1.21.61L257,37.49Zm-20,13.63a1.49,1.49,0,0,0,.69,2L262,66l-10.48-8.7,1.75-19.11,3.34-.66Zm-12.27-7.55-3,.59.21-2.31Zm-1.57-20.78a1.18,1.18,0,0,0,.27.06l-1.7,18.58-9.44-5.81Zm-11,13,9.59,5.9-.23,2.5-18.64,3.66a1.47,1.47,0,0,0-.38-.65Zm-14.2-7.17a1.4,1.4,0,0,0,.47.08,1.52,1.52,0,0,0,1.21-.61l12.31,7.57-9.64,11.38a1.48,1.48,0,0,0-.87-.28,1.5,1.5,0,0,0-1.44,1.08l-1.18-.23L222.87,38Zm-6.75,15.75,6.56,3-7.24-1.45Zm-.23-.11-.7,1.64L201,35.55l-.33-7.6ZM198.75,14.63a1.52,1.52,0,0,0,1.09.53l.53,12.39-12-5.56Zm-10.64,7.53,12.27,5.67.33,7.66-24.51-4.9Zm-.26-.12-12,8.48-6-1.19L151.77,6.24a1.54,1.54,0,0,0,.42-.69ZM149.75,6.25a1.49,1.49,0,0,0,.63.34L147.23,24.8l-18.06-3.61a1,1,0,0,0,0-.17,1.51,1.51,0,1,0-3,0,1.47,1.47,0,0,0,.3.89l-13.65,12-6.1-4.14a1.26,1.26,0,0,0,.06-.38,1.36,1.36,0,0,0,0-.29ZM103.84,29.78v0L89.09,35.64l-2.86-2.53Zm-15,6L81,38.83l-2.27-4.3,7.19-1.36ZM71.26,20.35l.06-.1L85.68,33,78.6,34.29Zm7.2,14.23,2.29,4.35-19,7.5a1.5,1.5,0,0,0-2.84.67,1.35,1.35,0,0,0,.13.6l-1.9,1-5.8-9ZM56.91,48.86,44.52,55.63A1.5,1.5,0,0,0,43.27,55l-.16,0-2.5-13.24,10.46-2ZM36.14,18.11a1.35,1.35,0,0,0,.35-.14l1.63,10.58Zm3.35,17.71-2.78-18a.91.91,0,0,0,.17-.17l14,21.89-10.36,2ZM20.79,46.41a1.54,1.54,0,0,0,.24-.82c0-.05,0-.1,0-.15l19.14-3.62,2.09,13.53a1.51,1.51,0,0,0-.49,1.11,1.5,1.5,0,0,0,.87,1.35v0L42.41,59l-2.66,2.2Zm19,15.06,1.82,1.42L35.89,90,19.23,80.76a1.57,1.57,0,0,0,.3-.9A1.52,1.52,0,0,0,19,78.69ZM18.44,81.3h0l11.66,28.5a1.48,1.48,0,0,0-.82,1.33,1.51,1.51,0,0,0,.44,1.06L25.66,117Zm-7.5,55.56a1.5,1.5,0,0,0,.56-1.17,1.46,1.46,0,0,0-.44-1.06l14.46-17.06,2.25,11.14-5.05,24-.18,0a1.47,1.47,0,0,0-.73.2Zm2.05,39a1.49,1.49,0,0,0-.69-1.11l9.88-19a1.42,1.42,0,0,0,.36.05,1.4,1.4,0,0,0,.73-.2l22.59,19.58Zm10.5-20.41a1.54,1.54,0,0,0,.54-1l18.75,2.68c0,.07,0,.14,0,.21a1.51,1.51,0,0,0,1.51,1.5,1.86,1.86,0,0,0,.34,0l10.12,16.22-8.5.18Zm40.87,35a1.07,1.07,0,0,0-.19.28L46.51,175.36l8.37-.17ZM58.53,173a1.51,1.51,0,0,0-1.14,1.45,1.76,1.76,0,0,0,.06.41l-2.43.05L44.86,158.64a1.59,1.59,0,0,0,.66-.54l11.76,5Zm-1-10.14-.32-2.62L72,163.57a1.48,1.48,0,0,0,2.22,1.18l44.72,24Zm17,1.71a1.42,1.42,0,0,0,.4-.51L120.82,170l5.66,21.92-5.06-2.13Zm49.3,26.48,2.58,1.09a2.44,2.44,0,0,0-.1.24Zm4.84.62a1.53,1.53,0,0,0-.94-.33,1.5,1.5,0,0,0-1,.38l-5.6-21.69,14.35,1.86Zm7.15-20,1.47-4.26h.14a1.51,1.51,0,0,0,1.5-1.42l26.15-.75,12.77,11.31a1.52,1.52,0,0,0-.25.51Zm44.73,5.83s0,0,0-.05a1.51,1.51,0,0,0-.09-.48l18.36-12.7,1.57-.05-5.1,8.48Zm9.93,4.61a1.71,1.71,0,0,0-.35-.36l5.33-8.85,6.58-2.14.52,2.74A1.51,1.51,0,0,0,201.4,175a1.38,1.38,0,0,0,.16.64ZM249,176.08a1.47,1.47,0,0,0,.49-1.1,1.51,1.51,0,0,0-1.5-1.51,1.55,1.55,0,0,0-.61.13L237.17,158l10-4.63,5,.81s0,.08,0,.12a1.5,1.5,0,0,0,1.5,1.5h0l5.64,34.15a1.51,1.51,0,0,0-.94.73Zm12.25,15a1.5,1.5,0,0,0-.66-1l9.93-40,18.72,36.95a1.5,1.5,0,0,0-.71,1.28v0Z"/></g><rect class="cls-6" y="97.84" width="300" height="102.16"/><path class="cls-7" d="M228,130.05l2.53-3.65a1,1,0,0,0-.26-1.37l-19.49-12.88a.85.85,0,0,0-1.27.35l-3.05,6.36a.89.89,0,0,1-1.29.37l-57.8-35.36a1.66,1.66,0,0,0-1.67,0L122.15,100.4a1.5,1.5,0,0,1-1.63,0L86.46,75.83a1,1,0,0,1-.22-1.39l5.37-7.35a1,1,0,0,1,1.4-.22l27.6,19.9a1.52,1.52,0,0,0,1.63,0l23-16.12a1.64,1.64,0,0,1,1.67,0l53.51,32.73a.89.89,0,0,0,1.29-.38L205,96.21a.85.85,0,0,1,1.27-.35l30.33,20a1,1,0,0,0,1.41-.27l2.65-3.83a.57.57,0,0,1,1,.06l12.17,21.89c.27.48,0,.81-.5.74l-25-3.48A.57.57,0,0,1,228,130.05Z"/><path class="cls-8" d="M253.56,133.56c.27.48,0,.81-.51.73l-24.4-3.4a.57.57,0,0,1-.42-1l2.48-3.57a1,1,0,0,0-.26-1.38l-19.77-13.06a.85.85,0,0,0-1.27.35l-3.06,6.37a.89.89,0,0,1-1.29.37L147.33,83.69a1.64,1.64,0,0,0-1.67,0l-23.51,16.47a1.5,1.5,0,0,1-1.63,0L86.67,75.8a1,1,0,0,1-.22-1.4l5.19-7.09a1,1,0,0,1,1.4-.22L120.61,87a1.5,1.5,0,0,0,1.63,0l23-16.13a1.66,1.66,0,0,1,1.68,0l53.57,32.77a.88.88,0,0,0,1.28-.38L205,96.43a.84.84,0,0,1,1.26-.35l30.32,20a1,1,0,0,0,1.4-.27l2.59-3.75a.58.58,0,0,1,1.06.06Z"/><path class="cls-9" d="M253.28,133.36c.26.48,0,.81-.51.74l-23.85-3.33a.57.57,0,0,1-.42-1l2.43-3.49a1,1,0,0,0-.27-1.38l-20-13.25a.86.86,0,0,0-1.27.35l-3.06,6.38a.89.89,0,0,1-1.29.37L147.32,83.51a1.64,1.64,0,0,0-1.67,0L122.15,100a1.5,1.5,0,0,1-1.63,0L86.89,75.76a1,1,0,0,1-.22-1.39l5-6.85a1,1,0,0,1,1.4-.22l27.53,19.84a1.48,1.48,0,0,0,1.63,0l23-16.13a1.66,1.66,0,0,1,1.67,0l53.63,32.81a.89.89,0,0,0,1.29-.38l3.24-6.74a.85.85,0,0,1,1.27-.35l30.29,20a1,1,0,0,0,1.4-.27l2.54-3.66a.57.57,0,0,1,1.06,0Z"/><path class="cls-10" d="M253,133.17c.27.48,0,.81-.5.73l-23.3-3.25a.56.56,0,0,1-.42-1l2.37-3.42a1,1,0,0,0-.26-1.37l-20.33-13.43a.84.84,0,0,0-1.26.35l-3.07,6.37a.89.89,0,0,1-1.29.38L147.32,83.32a1.66,1.66,0,0,0-1.67.05l-23.5,16.46a1.48,1.48,0,0,1-1.63,0L87.1,75.73a1,1,0,0,1-.22-1.39l4.83-6.6a1,1,0,0,1,1.4-.23l27.5,19.82a1.48,1.48,0,0,0,1.63,0l23-16.13a1.64,1.64,0,0,1,1.67,0L200.63,104a.88.88,0,0,0,1.28-.38l3.24-6.74a.86.86,0,0,1,1.27-.35l30.27,20a1,1,0,0,0,1.4-.27l2.49-3.58a.57.57,0,0,1,1,0Z"/><path class="cls-11" d="M252.71,133c.26.48,0,.81-.51.74l-22.74-3.17a.57.57,0,0,1-.42-1l2.32-3.35a1,1,0,0,0-.27-1.37l-20.6-13.62a.86.86,0,0,0-1.27.35L206.16,118a.89.89,0,0,1-1.29.38L147.31,83.14a1.64,1.64,0,0,0-1.67,0L122.15,99.64a1.48,1.48,0,0,1-1.63,0L87.32,75.69a1,1,0,0,1-.22-1.39L91.75,68a1,1,0,0,1,1.4-.22l27.46,19.79a1.5,1.5,0,0,0,1.63,0l23-16.14a1.66,1.66,0,0,1,1.67,0l53.75,32.88a.89.89,0,0,0,1.29-.38l3.23-6.73a.85.85,0,0,1,1.27-.35l30.25,20a1,1,0,0,0,1.4-.27l2.43-3.5a.58.58,0,0,1,1.06,0Z"/><path class="cls-12" d="M252.42,132.78c.27.48,0,.81-.5.73l-22.19-3.09a.56.56,0,0,1-.42-1l2.26-3.27a1,1,0,0,0-.26-1.37L210.43,111a.85.85,0,0,0-1.27.35l-3.07,6.38a.88.88,0,0,1-1.29.38L147.31,83a1.68,1.68,0,0,0-1.68.06L122.15,99.46a1.5,1.5,0,0,1-1.63,0l-33-23.78a1,1,0,0,1-.22-1.39l4.47-6.11a1,1,0,0,1,1.4-.22L120.6,87.71a1.5,1.5,0,0,0,1.63,0l23-16.14a1.66,1.66,0,0,1,1.67-.06l53.81,32.92a.88.88,0,0,0,1.28-.38l3.24-6.72a.85.85,0,0,1,1.26-.36l30.23,20a1,1,0,0,0,1.4-.27l2.38-3.42a.57.57,0,0,1,1,0Z"/><path class="cls-13" d="M252.14,132.58c.27.48,0,.81-.51.74l-21.63-3a.56.56,0,0,1-.42-1l2.21-3.19a1,1,0,0,0-.26-1.37l-21.16-14a.85.85,0,0,0-1.27.35L206,117.53a.89.89,0,0,1-1.29.38L147.3,82.77a1.64,1.64,0,0,0-1.67,0L122.16,99.27a1.52,1.52,0,0,1-1.63,0L87.75,75.63a1,1,0,0,1-.22-1.4l4.28-5.85a1,1,0,0,1,1.4-.22L120.6,87.9a1.5,1.5,0,0,0,1.63,0l23-16.15a1.64,1.64,0,0,1,1.67-.05l53.87,33a.89.89,0,0,0,1.29-.38l3.23-6.72a.85.85,0,0,1,1.27-.35l30.2,20a1,1,0,0,0,1.4-.28l2.32-3.34a.58.58,0,0,1,1.06,0Z"/><path class="cls-14" d="M251.85,132.39c.27.48.05.81-.5.73l-21.08-2.94a.56.56,0,0,1-.42-1l2.16-3.11a1,1,0,0,0-.27-1.38L210.3,110.57a.84.84,0,0,0-1.26.35L206,117.31a.88.88,0,0,1-1.29.38l-57.38-35.1a1.64,1.64,0,0,0-1.67,0L122.16,99.08a1.52,1.52,0,0,1-1.63,0L88,75.59a1,1,0,0,1-.22-1.39l4.1-5.61a1,1,0,0,1,1.4-.22L120.6,88.09a1.5,1.5,0,0,0,1.63,0l23.06-16.16a1.66,1.66,0,0,1,1.67,0l53.93,33a.88.88,0,0,0,1.28-.38l3.23-6.71a.85.85,0,0,1,1.27-.35l30.18,19.94a1,1,0,0,0,1.4-.27l2.27-3.27a.57.57,0,0,1,1,0Z"/><path class="cls-15" d="M251.57,132.19c.27.48,0,.81-.51.74l-20.52-2.87a.56.56,0,0,1-.42-.95l2.1-3a1,1,0,0,0-.26-1.38l-21.72-14.35a.85.85,0,0,0-1.27.35l-3.07,6.4a.89.89,0,0,1-1.29.38L147.29,82.4a1.66,1.66,0,0,0-1.67,0L122.16,98.89a1.5,1.5,0,0,1-1.63,0L88.18,75.56A1,1,0,0,1,88,74.17l3.92-5.36a1,1,0,0,1,1.4-.23l27.32,19.7a1.52,1.52,0,0,0,1.63,0l23.06-16.16a1.66,1.66,0,0,1,1.68,0l54,33a.89.89,0,0,0,1.29-.38L205.46,98a.85.85,0,0,1,1.27-.35l30.16,19.93a1,1,0,0,0,1.4-.27l2.21-3.19a.58.58,0,0,1,1.06.05Z"/><path class="cls-16" d="M251.28,132c.27.48.05.81-.5.73l-20-2.78a.56.56,0,0,1-.42-1l2.05-3a1,1,0,0,0-.26-1.37l-22-14.53a.85.85,0,0,0-1.27.35l-3.08,6.4a.88.88,0,0,1-1.29.38l-57.26-35a1.64,1.64,0,0,0-1.67,0L122.16,98.7a1.5,1.5,0,0,1-1.63,0L88.4,75.52a1,1,0,0,1-.22-1.39L91.92,69a1,1,0,0,1,1.4-.22L120.6,88.46a1.5,1.5,0,0,0,1.63,0L145.3,72.31a1.64,1.64,0,0,1,1.67,0L201,105.32a.88.88,0,0,0,1.28-.38l3.23-6.7a.83.83,0,0,1,1.26-.35l30.14,19.91a1,1,0,0,0,1.4-.27l2.16-3.11a.57.57,0,0,1,1,0Z"/><path class="cls-17" d="M251,131.8c.27.48,0,.81-.5.74l-19.43-2.71a.57.57,0,0,1-.42-1l2-2.89a1,1,0,0,0-.26-1.37l-22.27-14.72a.85.85,0,0,0-1.27.35l-3.08,6.41a.89.89,0,0,1-1.29.38l-57.2-35a1.68,1.68,0,0,0-1.68.06L122.16,98.51a1.5,1.5,0,0,1-1.63,0l-31.92-23a1,1,0,0,1-.22-1.39L92,69.23a1,1,0,0,1,1.4-.22L120.6,88.65a1.48,1.48,0,0,0,1.63,0L145.31,72.5a1.66,1.66,0,0,1,1.67-.06l54.1,33.1a.89.89,0,0,0,1.29-.38l3.22-6.7a.85.85,0,0,1,1.27-.35L237,118a1,1,0,0,0,1.4-.27l2.11-3a.57.57,0,0,1,1.05.05Z"/><path class="cls-18" d="M250.72,131.61c.26.48,0,.81-.51.73l-18.87-2.63a.57.57,0,0,1-.42-1l2-2.81a1,1,0,0,0-.26-1.37l-22.55-14.91a.86.86,0,0,0-1.27.35l-3.09,6.42a.88.88,0,0,1-1.28.38l-57.15-35a1.66,1.66,0,0,0-1.67.05L122.16,98.32a1.48,1.48,0,0,1-1.63,0L88.83,75.45a1,1,0,0,1-.22-1.39L92,69.45a1,1,0,0,1,1.4-.22L120.6,88.84a1.48,1.48,0,0,0,1.63,0l23.08-16.17a1.64,1.64,0,0,1,1.67-.05l54.17,33.13a.88.88,0,0,0,1.28-.38l3.22-6.69a.85.85,0,0,1,1.27-.35L237,118.22a1,1,0,0,0,1.41-.27l2-3a.58.58,0,0,1,1.06,0Z"/><path class="cls-19" d="M250.43,131.41c.27.48,0,.81-.5.74l-18.32-2.56a.57.57,0,0,1-.42-1l1.9-2.73a1,1,0,0,0-.27-1.37L210,109.44a.83.83,0,0,0-1.26.35l-3.09,6.42a.89.89,0,0,1-1.29.38L147.27,81.67a1.66,1.66,0,0,0-1.68,0L122.16,98.13a1.48,1.48,0,0,1-1.63,0L89,75.42A1,1,0,0,1,88.82,74L92,69.66a1,1,0,0,1,1.4-.22L120.6,89a1.5,1.5,0,0,0,1.63,0l23.09-16.18a1.66,1.66,0,0,1,1.67,0L201.21,106a.89.89,0,0,0,1.29-.38l3.21-6.69a.86.86,0,0,1,1.27-.35l30.07,19.87a1,1,0,0,0,1.41-.27l2-2.87a.57.57,0,0,1,1.05,0Z"/><path class="cls-20" d="M250.15,131.22c.26.48,0,.81-.51.73l-17.76-2.47a.57.57,0,0,1-.42-1l1.84-2.66a1,1,0,0,0-.26-1.38l-23.11-15.27a.86.86,0,0,0-1.27.35L205.57,116a.88.88,0,0,1-1.28.38l-57-34.89a1.66,1.66,0,0,0-1.67,0L122.16,98a1.5,1.5,0,0,1-1.63,0L89.26,75.39A1,1,0,0,1,89,74l3-4.11a1,1,0,0,1,1.4-.23l27.14,19.57a1.52,1.52,0,0,0,1.64,0l23.09-16.18A1.64,1.64,0,0,1,147,73l54.29,33.2a.88.88,0,0,0,1.28-.38l3.21-6.68a.85.85,0,0,1,1.27-.35l30.05,19.86a1,1,0,0,0,1.41-.28l1.93-2.79a.58.58,0,0,1,1.06.06Z"/><path class="cls-21" d="M249.86,131c.27.48,0,.81-.5.74l-17.21-2.4a.56.56,0,0,1-.42-1l1.79-2.58a1,1,0,0,0-.26-1.38L209.87,109a.85.85,0,0,0-1.27.35l-3.09,6.43a.89.89,0,0,1-1.29.38l-57-34.85a1.64,1.64,0,0,0-1.67,0L122.17,97.76a1.52,1.52,0,0,1-1.63,0L89.48,75.35A1,1,0,0,1,89.25,74l2.84-3.87a1,1,0,0,1,1.4-.22l27.1,19.54a1.5,1.5,0,0,0,1.63,0l23.11-16.19a1.64,1.64,0,0,1,1.67,0l54.34,33.24a.89.89,0,0,0,1.29-.38l3.21-6.68A.85.85,0,0,1,207.1,99l30,19.85a1,1,0,0,0,1.41-.28l1.88-2.7a.57.57,0,0,1,1.05.05Z"/><path class="cls-22" d="M249.58,130.83c.27.48,0,.81-.51.73l-16.65-2.32a.56.56,0,0,1-.42-1l1.74-2.51a1,1,0,0,0-.27-1.37l-23.66-15.64a.85.85,0,0,0-1.27.35l-3.1,6.44a.88.88,0,0,1-1.28.38L147.25,81.11a1.66,1.66,0,0,0-1.67.06l-23.41,16.4a1.5,1.5,0,0,1-1.63,0L89.69,75.32a1,1,0,0,1-.22-1.39l2.65-3.62a1,1,0,0,1,1.4-.23L120.59,89.6a1.5,1.5,0,0,0,1.63,0l23.11-16.2a1.68,1.68,0,0,1,1.68,0l54.4,33.28a.88.88,0,0,0,1.28-.38l3.21-6.67a.85.85,0,0,1,1.27-.35l30,19.83a1,1,0,0,0,1.4-.27l1.82-2.63a.57.57,0,0,1,1.06,0Z"/><path class="cls-23" d="M249.29,130.63c.27.48.05.81-.5.74l-16.1-2.25a.56.56,0,0,1-.42-1l1.68-2.43a1,1,0,0,0-.26-1.37l-23.95-15.82a.84.84,0,0,0-1.26.35l-3.1,6.44a.89.89,0,0,1-1.29.38L147.24,80.93a1.66,1.66,0,0,0-1.67,0l-23.4,16.4a1.5,1.5,0,0,1-1.63,0L89.91,75.28a1,1,0,0,1-.22-1.39l2.46-3.37a1,1,0,0,1,1.4-.22l27,19.49a1.52,1.52,0,0,0,1.63,0l23.12-16.2a1.64,1.64,0,0,1,1.67,0l54.46,33.31a.89.89,0,0,0,1.29-.38l3.2-6.66a.85.85,0,0,1,1.27-.35l30,19.81a1,1,0,0,0,1.4-.27l1.77-2.55a.57.57,0,0,1,1.05.05Z"/><path class="cls-24" d="M249,130.44c.27.48,0,.81-.51.73L233,129a.56.56,0,0,1-.42-1l1.63-2.35a1,1,0,0,0-.27-1.37l-24.22-16a.85.85,0,0,0-1.27.35l-3.1,6.45a.88.88,0,0,1-1.28.38L147.24,80.75a1.64,1.64,0,0,0-1.67,0l-23.4,16.39a1.5,1.5,0,0,1-1.63,0L90.12,75.25a1,1,0,0,1-.22-1.39l2.29-3.13a1,1,0,0,1,1.4-.22l27,19.46a1.5,1.5,0,0,0,1.63,0l23.13-16.21a1.66,1.66,0,0,1,1.67,0l54.51,33.35a.88.88,0,0,0,1.29-.38L206,100a.85.85,0,0,1,1.27-.35l30,19.8a1,1,0,0,0,1.4-.27l1.71-2.47a.58.58,0,0,1,1.06,0Z"/><path class="cls-25" d="M248.73,130.24c.26.48,0,.81-.51.74l-15-2.09a.56.56,0,0,1-.42-1l1.57-2.28a1,1,0,0,0-.26-1.37l-24.5-16.19a.85.85,0,0,0-1.27.35l-3.1,6.45a.89.89,0,0,1-1.29.38L147.23,80.56a1.66,1.66,0,0,0-1.67.06L122.17,97a1.5,1.5,0,0,1-1.63,0L90.34,75.22a1,1,0,0,1-.22-1.4L92.22,71a1,1,0,0,1,1.4-.22l27,19.43a1.48,1.48,0,0,0,1.63,0L145.35,74a1.66,1.66,0,0,1,1.67-.06L201.6,107.3a.89.89,0,0,0,1.29-.38l3.2-6.65a.84.84,0,0,1,1.26-.35l30,19.78a1,1,0,0,0,1.4-.27l1.66-2.39a.57.57,0,0,1,1,0Z"/><path class="cls-26" d="M248.44,130.05c.27.48,0,.81-.5.73l-14.45-2a.57.57,0,0,1-.42-1l1.53-2.2a1,1,0,0,0-.26-1.38l-24.78-16.37a.85.85,0,0,0-1.27.35l-3.11,6.46a.88.88,0,0,1-1.28.38L147.23,80.38a1.66,1.66,0,0,0-1.68.05L122.17,96.81a1.48,1.48,0,0,1-1.63,0l-30-21.62a1,1,0,0,1-.22-1.39l1.92-2.63a1,1,0,0,1,1.41-.22l26.93,19.41a1.48,1.48,0,0,0,1.63,0l23.14-16.21A1.64,1.64,0,0,1,147,74.1l54.63,33.42a.88.88,0,0,0,1.29-.38l3.2-6.65a.85.85,0,0,1,1.27-.35l29.92,19.77a1,1,0,0,0,1.4-.27l1.61-2.31a.57.57,0,0,1,1.05,0Z"/><path class="cls-27" d="M248.16,129.85c.26.48,0,.81-.51.74l-13.89-1.94a.57.57,0,0,1-.42-1l1.48-2.12a1,1,0,0,0-.27-1.38l-25.06-16.56a.85.85,0,0,0-1.26.35l-3.11,6.47a.89.89,0,0,1-1.29.38L147.22,80.2a1.64,1.64,0,0,0-1.67,0L122.17,96.62a1.48,1.48,0,0,1-1.63,0L90.77,75.15a1,1,0,0,1-.22-1.4l1.74-2.37a1,1,0,0,1,1.4-.23l26.9,19.39a1.5,1.5,0,0,0,1.63,0l23.14-16.22a1.66,1.66,0,0,1,1.67,0l54.7,33.46a.89.89,0,0,0,1.29-.38l3.19-6.64a.85.85,0,0,1,1.27-.35l29.9,19.75a1,1,0,0,0,1.4-.27l1.55-2.23a.58.58,0,0,1,1.06,0Z"/><path class="cls-28" d="M247.87,129.66c.27.48,0,.81-.5.73L234,128.53a.57.57,0,0,1-.42-1l1.42-2a1,1,0,0,0-.26-1.37l-25.34-16.74a.85.85,0,0,0-1.27.35l-3.11,6.47a.88.88,0,0,1-1.28.38L147.21,80a1.66,1.66,0,0,0-1.67,0L122.17,96.44a1.5,1.5,0,0,1-1.63,0L91,75.11a1,1,0,0,1-.22-1.39l1.56-2.13a1,1,0,0,1,1.4-.22l26.86,19.36a1.52,1.52,0,0,0,1.64,0l23.15-16.22a1.64,1.64,0,0,1,1.67,0L201.79,108a.88.88,0,0,0,1.29-.38l3.19-6.64a.86.86,0,0,1,1.27-.35l29.88,19.75a1,1,0,0,0,1.4-.28l1.5-2.15a.57.57,0,0,1,1.05,0Z"/><path class="cls-29" d="M247.59,129.46c.27.48,0,.81-.51.74l-12.78-1.79a.56.56,0,0,1-.42-1l1.37-2a1,1,0,0,0-.27-1.37l-25.61-16.93a.86.86,0,0,0-1.27.35L205,114a.89.89,0,0,1-1.29.38L147.21,79.83a1.64,1.64,0,0,0-1.67,0L122.18,96.25a1.52,1.52,0,0,1-1.63,0L91.2,75.08A1,1,0,0,1,91,73.69l1.38-1.89a1,1,0,0,1,1.4-.22l26.82,19.34a1.5,1.5,0,0,0,1.63,0L145.37,74.7a1.66,1.66,0,0,1,1.68,0l54.81,33.53a.89.89,0,0,0,1.29-.38l3.18-6.63a.85.85,0,0,1,1.27-.35l29.86,19.73a1,1,0,0,0,1.4-.27l1.44-2.08a.58.58,0,0,1,1.06,0Z"/><path class="cls-30" d="M247.3,129.27c.27.48,0,.81-.5.73l-12.23-1.7a.56.56,0,0,1-.42-1l1.31-1.9a1,1,0,0,0-.26-1.37L209.31,107a.85.85,0,0,0-1.27.35l-3.12,6.48a.88.88,0,0,1-1.28.38L147.2,79.64a1.66,1.66,0,0,0-1.67.06L122.18,96.06a1.5,1.5,0,0,1-1.63,0L91.42,75a1,1,0,0,1-.22-1.39L92.39,72a1,1,0,0,1,1.4-.22l26.79,19.31a1.5,1.5,0,0,0,1.63,0l23.17-16.23a1.66,1.66,0,0,1,1.67-.06l54.87,33.57a.88.88,0,0,0,1.29-.38l3.19-6.63a.85.85,0,0,1,1.26-.35l29.84,19.72a1,1,0,0,0,1.4-.27l1.39-2a.57.57,0,0,1,1.05.05Z"/><path class="cls-31" d="M247,129.07c.27.48,0,.81-.51.74l-11.67-1.63a.56.56,0,0,1-.42-1l1.26-1.82a1,1,0,0,0-.26-1.37l-26.17-17.3a.85.85,0,0,0-1.27.35l-3.12,6.49a.89.89,0,0,1-1.29.38L147.2,79.46a1.66,1.66,0,0,0-1.67.05L122.18,95.87a1.5,1.5,0,0,1-1.63,0L91.63,75a1,1,0,0,1-.22-1.39l1-1.39A1,1,0,0,1,93.83,72L120.58,91.3a1.52,1.52,0,0,0,1.63,0l23.18-16.24a1.64,1.64,0,0,1,1.67,0L202,108.62a.89.89,0,0,0,1.29-.38l3.18-6.62a.85.85,0,0,1,1.27-.35L237.54,121a1,1,0,0,0,1.4-.27l1.33-1.92a.58.58,0,0,1,1.06,0Z"/><path class="cls-32" d="M246.73,128.88c.27.48.05.81-.5.73l-11.12-1.55a.56.56,0,0,1-.42-1l1.21-1.74a1,1,0,0,0-.27-1.38l-26.45-17.47a.84.84,0,0,0-1.26.35l-3.13,6.49a.88.88,0,0,1-1.28.38L147.19,79.28a1.64,1.64,0,0,0-1.67,0L122.18,95.68a1.5,1.5,0,0,1-1.63,0L91.85,75a1,1,0,0,1-.22-1.4l.83-1.13a1,1,0,0,1,1.4-.23l26.72,19.26a1.5,1.5,0,0,0,1.63,0l23.18-16.25a1.66,1.66,0,0,1,1.67,0l55,33.64a.88.88,0,0,0,1.29-.38l3.18-6.61a.85.85,0,0,1,1.27-.35l29.79,19.68a1,1,0,0,0,1.41-.27l1.27-1.84a.57.57,0,0,1,1.05.06Z"/><path class="cls-33" d="M246.45,128.68l-5.15-9.26a.57.57,0,0,0-1.05-.06L239,121.12a1,1,0,0,1-1.41.27l-29.77-19.67a.85.85,0,0,0-1.27.35l-3.17,6.61a.89.89,0,0,1-1.29.38L147.07,75.39a1.64,1.64,0,0,0-1.67,0L122.21,91.68a1.48,1.48,0,0,1-1.63,0L93.89,72.44a1,1,0,0,0-1.4.22l-.65.89a1,1,0,0,0,.22,1.39l28.49,20.54a1.5,1.5,0,0,0,1.63,0l23.33-16.35a1.68,1.68,0,0,1,1.68,0l56.25,34.42a.89.89,0,0,0,1.29-.38l3.12-6.5a.85.85,0,0,1,1.27-.35l26.73,17.66a1,1,0,0,1,.26,1.38L235,127a.56.56,0,0,0,.42,1L246,129.42C246.49,129.49,246.72,129.16,246.45,128.68Z"/><g class="cls-34"><path class="cls-7" d="M162.36,87.8,150.27,98.91a1.22,1.22,0,0,1-1.52,0L129.52,83.69a1.2,1.2,0,0,0-1.52.06l-26.72,24.53a1,1,0,0,1-1.42-.06l-6.22-6.64a1,1,0,0,1,0-1.41l33.78-31a1.21,1.21,0,0,1,1.52-.06l19.23,15.27a1.2,1.2,0,0,0,1.52,0l15.09-13.85a.79.79,0,0,1,1.25.18l21.39,35.18a.69.69,0,0,0,1.18.11l41.24-46.87a1,1,0,0,0-.12-1.39l-3.46-2.82a.57.57,0,0,1,.14-1l23-10.16c.5-.23.81,0,.69.57l-5.63,24.36a.57.57,0,0,1-1,.34l-3.61-3a1,1,0,0,0-1.44.12L187,124.61a.69.69,0,0,1-1.18-.1L163.62,88A.8.8,0,0,0,162.36,87.8Z"/><path class="cls-35" d="M226.6,54.89a.57.57,0,0,1,.15-1l22.51-9.94c.5-.22.81,0,.69.57l-5.5,23.82a.57.57,0,0,1-1,.34l-3.54-2.88a1,1,0,0,0-1.43.11L187,124.36a.7.7,0,0,1-1.18-.11l-22.2-36.51a.79.79,0,0,0-1.25-.18L150.27,98.7a1.21,1.21,0,0,1-1.52.06L129.51,83.49a1.22,1.22,0,0,0-1.52.05l-26.7,24.52a1,1,0,0,1-1.42,0l-6-6.43a1,1,0,0,1,0-1.4l33.57-30.83a1.22,1.22,0,0,1,1.52-.06l19.23,15.28a1.22,1.22,0,0,0,1.52-.06l15-13.81a.8.8,0,0,1,1.26.18l21.4,35.2a.7.7,0,0,0,1.18.11L230.11,59a1,1,0,0,0-.12-1.39Z"/><path class="cls-36" d="M226.9,54.93a.56.56,0,0,1,.14-1l22-9.71c.5-.23.81,0,.69.57L244.35,68a.57.57,0,0,1-1,.35l-3.46-2.83a1,1,0,0,0-1.43.12l-51.4,58.44a.7.7,0,0,1-1.18-.11L163.69,87.5a.8.8,0,0,0-1.26-.18L150.26,98.5a1.21,1.21,0,0,1-1.52.06L129.5,83.29a1.21,1.21,0,0,0-1.52,0l-26.68,24.5a1,1,0,0,1-1.42,0l-5.8-6.2a1,1,0,0,1,0-1.41l33.36-30.63a1.2,1.2,0,0,1,1.52,0l19.23,15.27a1.21,1.21,0,0,0,1.52-.06l15-13.77a.79.79,0,0,1,1.25.18l21.42,35.22a.69.69,0,0,0,1.18.1L230.33,59a1,1,0,0,0-.12-1.38Z"/><path class="cls-37" d="M227.19,55a.56.56,0,0,1,.14-1l21.49-9.49c.5-.22.81,0,.69.57l-5.25,22.74a.57.57,0,0,1-1,.34l-3.38-2.76a1,1,0,0,0-1.44.12l-51.36,58.39a.69.69,0,0,1-1.18-.1L163.72,87.26a.8.8,0,0,0-1.26-.18L150.25,98.3a1.21,1.21,0,0,1-1.52,0L129.49,83.09a1.21,1.21,0,0,0-1.52,0l-26.66,24.49a1,1,0,0,1-1.42-.06l-5.59-6a1,1,0,0,1,0-1.41l33.14-30.44a1.22,1.22,0,0,1,1.52,0L148.25,85a1.22,1.22,0,0,0,1.52,0l14.95-13.74a.8.8,0,0,1,1.26.18l21.43,35.24a.69.69,0,0,0,1.18.1l42-47.7a1,1,0,0,0-.12-1.38Z"/><path class="cls-38" d="M227.48,55a.56.56,0,0,1,.14-1l21-9.26c.51-.23.81,0,.69.57l-5.13,22.19a.58.58,0,0,1-1,.35l-3.3-2.7a1,1,0,0,0-1.44.12L187.1,123.58a.7.7,0,0,1-1.18-.1L163.75,87a.79.79,0,0,0-1.25-.18L150.24,98.1a1.2,1.2,0,0,1-1.52.05L129.49,82.88a1.2,1.2,0,0,0-1.52.06l-26.65,24.47a1,1,0,0,1-1.42,0l-5.39-5.75a1,1,0,0,1,.06-1.41L127.5,70A1.21,1.21,0,0,1,129,69.9l19.23,15.27a1.2,1.2,0,0,0,1.52,0l14.92-13.7a.8.8,0,0,1,1.26.18l21.43,35.26a.69.69,0,0,0,1.18.1l42.21-48a1,1,0,0,0-.11-1.38Z"/><path class="cls-39" d="M227.77,55a.56.56,0,0,1,.14-1l20.47-9c.51-.22.81,0,.69.57l-5,21.66a.57.57,0,0,1-1,.34l-3.23-2.64a1,1,0,0,0-1.43.12l-51.29,58.3a.69.69,0,0,1-1.18-.1L163.79,86.78a.8.8,0,0,0-1.26-.18L150.24,97.9a1.22,1.22,0,0,1-1.52,0L129.48,82.68a1.21,1.21,0,0,0-1.52.06l-26.64,24.45a1,1,0,0,1-1.42,0l-5.17-5.52a1,1,0,0,1,.06-1.41l32.72-30A1.21,1.21,0,0,1,129,70.1l19.23,15.27a1.21,1.21,0,0,0,1.52-.05l14.87-13.66a.8.8,0,0,1,1.26.18l21.45,35.28a.69.69,0,0,0,1.18.1L231,59a1,1,0,0,0-.11-1.39Z"/><path class="cls-40" d="M228.06,55.08a.56.56,0,0,1,.14-1l20-8.81c.51-.23.82,0,.69.57L244,66.92a.57.57,0,0,1-1,.34l-3.16-2.57a1,1,0,0,0-1.43.12l-51.24,58.25A.69.69,0,0,1,186,123L163.82,86.54a.79.79,0,0,0-1.25-.18L150.23,97.69a1.21,1.21,0,0,1-1.52.06L129.47,82.48a1.22,1.22,0,0,0-1.52,0L101.33,107a1,1,0,0,1-1.42-.06l-5-5.3a1,1,0,0,1,0-1.4l32.52-29.86a1.2,1.2,0,0,1,1.52,0l19.23,15.27a1.21,1.21,0,0,0,1.52-.06L164.62,71.9a.8.8,0,0,1,1.26.18l21.46,35.3a.69.69,0,0,0,1.18.1L231.21,59a1,1,0,0,0-.11-1.39Z"/><path class="cls-41" d="M228.35,55.12a.56.56,0,0,1,.14-1l19.45-8.59c.51-.22.82,0,.69.57l-4.75,20.58a.57.57,0,0,1-1,.34l-3.07-2.51a1,1,0,0,0-1.44.12l-51.2,58.2a.69.69,0,0,1-1.18-.1L163.86,86.3a.8.8,0,0,0-1.26-.18L150.22,97.49a1.21,1.21,0,0,1-1.52.06L129.46,82.28a1.19,1.19,0,0,0-1.51,0l-26.61,24.43a1,1,0,0,1-1.42-.05l-4.75-5.08a1,1,0,0,1,0-1.4l32.3-29.67a1.21,1.21,0,0,1,1.52,0l19.24,15.27a1.21,1.21,0,0,0,1.52-.06l14.79-13.58a.79.79,0,0,1,1.25.18l21.47,35.31a.69.69,0,0,0,1.18.11l42.94-48.81a1,1,0,0,0-.11-1.38Z"/><path class="cls-42" d="M228.65,55.16a.56.56,0,0,1,.14-1l18.93-8.36c.51-.23.82,0,.69.57l-4.62,20a.57.57,0,0,1-1,.34l-3-2.44a1.05,1.05,0,0,0-1.44.11l-51.16,58.16a.69.69,0,0,1-1.18-.1L163.89,86.06a.8.8,0,0,0-1.26-.18L150.22,97.29a1.21,1.21,0,0,1-1.52,0L129.46,82.07a1.22,1.22,0,0,0-1.52.06l-26.59,24.42a1,1,0,0,1-1.42-.06l-4.54-4.85a1,1,0,0,1,0-1.41l32.09-29.47a1.22,1.22,0,0,1,1.52-.05L148.28,86a1.22,1.22,0,0,0,1.52,0l14.75-13.55a.8.8,0,0,1,1.26.18l21.48,35.33a.69.69,0,0,0,1.18.11l43.18-49.09a1,1,0,0,0-.11-1.38Z"/><path class="cls-43" d="M228.94,55.2a.56.56,0,0,1,.14-1L247.5,46c.51-.22.82,0,.69.57l-4.5,19.5a.57.57,0,0,1-1,.34l-2.92-2.39a1,1,0,0,0-1.43.12l-51.12,58.12a.7.7,0,0,1-1.18-.11L163.92,85.82a.79.79,0,0,0-1.25-.18L150.21,97.09a1.21,1.21,0,0,1-1.52,0L129.45,81.87a1.21,1.21,0,0,0-1.52.06l-26.57,24.4a1,1,0,0,1-1.42,0l-4.33-4.63a1,1,0,0,1,0-1.41L127.54,71a1.2,1.2,0,0,1,1.52-.06l19.23,15.27a1.21,1.21,0,0,0,1.52-.05l14.71-13.51a.8.8,0,0,1,1.26.18l21.49,35.35a.7.7,0,0,0,1.18.11l43.42-49.37a1,1,0,0,0-.11-1.38Z"/><path class="cls-44" d="M229.23,55.24a.56.56,0,0,1,.14-1l17.92-7.91c.5-.23.81,0,.69.57L243.6,65.82a.57.57,0,0,1-1,.34l-2.85-2.32a1,1,0,0,0-1.43.12L187.24,122a.69.69,0,0,1-1.18-.11L164,85.58a.8.8,0,0,0-1.26-.18L150.2,96.88a1.21,1.21,0,0,1-1.52.06L129.44,81.67a1.22,1.22,0,0,0-1.52,0l-26.56,24.39a1,1,0,0,1-1.42,0l-4.11-4.4a1,1,0,0,1,0-1.41l31.67-29.08a1.2,1.2,0,0,1,1.51-.06L148.3,86.39a1.22,1.22,0,0,0,1.52-.06l14.66-13.47a.8.8,0,0,1,1.26.18l21.51,35.37a.69.69,0,0,0,1.18.1l43.66-49.64a1,1,0,0,0-.11-1.38Z"/><path class="cls-45" d="M229.52,55.28a.57.57,0,0,1,.14-1l17.41-7.68c.5-.22.81,0,.69.57L243.5,65.54a.57.57,0,0,1-1,.35l-2.76-2.26a1.05,1.05,0,0,0-1.44.11l-51,58a.69.69,0,0,1-1.18-.11L164,85.34a.79.79,0,0,0-1.25-.18L150.19,96.68a1.2,1.2,0,0,1-1.52.06L129.44,81.47a1.2,1.2,0,0,0-1.52,0L101.37,105.9a1,1,0,0,1-1.42-.06L96,101.67a1,1,0,0,1,.06-1.41l31.45-28.89a1.21,1.21,0,0,1,1.52-.05L148.3,86.59a1.2,1.2,0,0,0,1.52-.06L164.45,73.1a.8.8,0,0,1,1.26.18l21.51,35.39a.69.69,0,0,0,1.18.1l43.92-49.91a1,1,0,0,0-.12-1.39Z"/><path class="cls-46" d="M229.81,55.32a.57.57,0,0,1,.14-1l16.9-7.45c.5-.23.81,0,.69.57l-4.13,17.87a.57.57,0,0,1-1,.34l-2.69-2.2a1.06,1.06,0,0,0-1.44.12l-51,58a.7.7,0,0,1-1.18-.1L164,85.1a.8.8,0,0,0-1.26-.18L150.19,96.48a1.22,1.22,0,0,1-1.52.06L129.43,81.27a1.2,1.2,0,0,0-1.52,0l-26.53,24.36a1,1,0,0,1-1.42-.05l-3.7-4a1,1,0,0,1,0-1.4l31.25-28.7a1.22,1.22,0,0,1,1.52,0l19.23,15.27a1.22,1.22,0,0,0,1.52-.05l14.59-13.4a.79.79,0,0,1,1.25.18l21.53,35.41a.69.69,0,0,0,1.18.1l44.16-50.19a1,1,0,0,0-.12-1.39Z"/><path class="cls-47" d="M230.1,55.36a.57.57,0,0,1,.14-1l16.39-7.23c.5-.22.81,0,.69.57l-4,17.33a.58.58,0,0,1-1,.35L239.7,63.2a1,1,0,0,0-1.43.12l-51,57.93a.69.69,0,0,1-1.18-.1L164.06,84.86a.8.8,0,0,0-1.26-.18l-12.62,11.6a1.21,1.21,0,0,1-1.52,0L129.42,81.06a1.21,1.21,0,0,0-1.52.06l-26.51,24.34a1,1,0,0,1-1.42,0l-3.49-3.73a1,1,0,0,1,0-1.4l31-28.5a1.2,1.2,0,0,1,1.52-.06L148.32,87a1.21,1.21,0,0,0,1.52,0l14.54-13.36a.8.8,0,0,1,1.26.18l21.54,35.43a.69.69,0,0,0,1.18.1l44.4-50.47a1,1,0,0,0-.12-1.38Z"/><path class="cls-48" d="M230.39,55.4a.57.57,0,0,1,.14-1l15.88-7c.5-.22.81,0,.69.58l-3.88,16.79a.57.57,0,0,1-1,.34L239.68,63a1,1,0,0,0-1.43.12L187.33,121a.69.69,0,0,1-1.18-.1L164.09,84.62a.79.79,0,0,0-1.25-.18L150.17,96.08a1.22,1.22,0,0,1-1.52,0L129.41,80.86a1.21,1.21,0,0,0-1.52.06L101.4,105.25a1,1,0,0,1-1.42-.06l-3.28-3.5a1,1,0,0,1,0-1.41L127.57,72a1.21,1.21,0,0,1,1.52-.06l19.24,15.27a1.21,1.21,0,0,0,1.52,0l14.5-13.32a.8.8,0,0,1,1.26.18l21.55,35.45a.69.69,0,0,0,1.18.1L233,58.8a1,1,0,0,0-.12-1.38Z"/><path class="cls-49" d="M230.69,55.44a.57.57,0,0,1,.14-1l15.36-6.78c.51-.22.81,0,.69.57l-3.75,16.25a.57.57,0,0,1-1,.34l-2.46-2a1.07,1.07,0,0,0-1.44.12l-50.88,57.84a.69.69,0,0,1-1.18-.1l-22-36.25a.8.8,0,0,0-1.26-.18L150.16,95.87a1.2,1.2,0,0,1-1.52.06L129.41,80.66a1.22,1.22,0,0,0-1.52,0L101.41,105a1,1,0,0,1-1.42,0l-3.07-3.28a1,1,0,0,1,0-1.41l30.61-28.11a1.21,1.21,0,0,1,1.52-.05L148.33,87.4a1.2,1.2,0,0,0,1.52-.06l14.46-13.28a.8.8,0,0,1,1.26.18l21.56,35.46a.69.69,0,0,0,1.18.11l44.89-51a1,1,0,0,0-.12-1.38Z"/><path class="cls-50" d="M231,55.48a.57.57,0,0,1,.14-1L246,47.88c.51-.22.82,0,.69.57L243,64.17a.57.57,0,0,1-1,.34l-2.38-2a1.06,1.06,0,0,0-1.44.12l-50.84,57.79a.69.69,0,0,1-1.18-.1l-22-36.23a.79.79,0,0,0-1.25-.18L150.16,95.67a1.21,1.21,0,0,1-1.52.06L129.4,80.46a1.21,1.21,0,0,0-1.52.05l-26.47,24.3a1,1,0,0,1-1.42,0l-2.85-3.05a1,1,0,0,1,0-1.41l30.4-27.92a1.21,1.21,0,0,1,1.52,0L148.34,87.6a1.21,1.21,0,0,0,1.52-.06L164.28,74.3a.8.8,0,0,1,1.26.18L187.11,110a.69.69,0,0,0,1.18.11l45.13-51.3a1,1,0,0,0-.11-1.39Z"/><path class="cls-51" d="M231.27,55.52a.56.56,0,0,1,.14-1l14.34-6.33c.51-.22.82,0,.69.57l-3.5,15.17a.57.57,0,0,1-1,.34l-2.31-1.88a1,1,0,0,0-1.43.12l-50.8,57.75a.7.7,0,0,1-1.18-.11l-22-36.21a.8.8,0,0,0-1.26-.18L150.15,95.47a1.21,1.21,0,0,1-1.52,0L129.39,80.25a1.22,1.22,0,0,0-1.52.06L101.42,104.6a1,1,0,0,1-1.42-.06l-2.65-2.82a1,1,0,0,1,.06-1.41L127.6,72.58a1.22,1.22,0,0,1,1.52,0L148.35,87.8a1.22,1.22,0,0,0,1.52,0l14.38-13.21a.79.79,0,0,1,1.25.18l21.59,35.5a.7.7,0,0,0,1.18.11l45.37-51.58a1,1,0,0,0-.11-1.39Z"/><path class="cls-52" d="M231.56,55.56a.56.56,0,0,1,.14-1l13.83-6.11c.51-.22.82,0,.69.57l-3.38,14.64a.57.57,0,0,1-1,.34l-2.23-1.82a1,1,0,0,0-1.43.11L187.42,120a.69.69,0,0,1-1.18-.11l-22-36.19a.8.8,0,0,0-1.26-.18L150.14,95.27a1.21,1.21,0,0,1-1.52,0L129.38,80.05a1.21,1.21,0,0,0-1.52.06l-26.43,24.27a1,1,0,0,1-1.42,0l-2.44-2.61a1,1,0,0,1,.06-1.4l30-27.53a1.21,1.21,0,0,1,1.52-.06L148.36,88a1.21,1.21,0,0,0,1.52,0l14.33-13.17a.8.8,0,0,1,1.26.18l21.59,35.52a.69.69,0,0,0,1.18.1l45.62-51.85a1,1,0,0,0-.11-1.38Z"/><path class="cls-53" d="M231.85,55.6a.57.57,0,0,1,.14-1l13.32-5.88c.51-.22.82,0,.69.57l-3.25,14.09a.57.57,0,0,1-1,.34l-2.16-1.76a1,1,0,0,0-1.43.12L187.44,119.7a.69.69,0,0,1-1.18-.11l-22-36.17a.79.79,0,0,0-1.25-.18L150.14,95.07a1.22,1.22,0,0,1-1.52.05L129.38,79.85a1.22,1.22,0,0,0-1.52.05l-26.42,24.27a1,1,0,0,1-1.42-.06l-2.23-2.38a1,1,0,0,1,0-1.4L127.61,73a1.22,1.22,0,0,1,1.52-.06l19.23,15.28a1.22,1.22,0,0,0,1.52-.06L164.18,75a.78.78,0,0,1,1.25.18L187,110.74a.69.69,0,0,0,1.18.1l45.86-52.13a1,1,0,0,0-.11-1.38Z"/><path class="cls-54" d="M232.14,55.64a.57.57,0,0,1,.14-1l12.81-5.66c.51-.22.82,0,.69.57l-3.12,13.55a.58.58,0,0,1-1,.35l-2.08-1.7a1,1,0,0,0-1.44.12l-50.67,57.61a.69.69,0,0,1-1.18-.1l-22-36.16A.8.8,0,0,0,163,83L150.13,94.86a1.21,1.21,0,0,1-1.52.06L129.37,79.65a1.21,1.21,0,0,0-1.52,0L101.45,104a1,1,0,0,1-1.42,0l-2-2.16a1,1,0,0,1,0-1.41l29.56-27.14a1.2,1.2,0,0,1,1.52,0l19.23,15.27a1.21,1.21,0,0,0,1.52-.06l14.25-13.08a.79.79,0,0,1,1.26.17L187,111a.69.69,0,0,0,1.18.1l46.1-52.41a1,1,0,0,0-.11-1.38Z"/><path class="cls-55" d="M232.43,55.68a.57.57,0,0,1,.14-1l12.31-5.43c.5-.22.81,0,.69.57l-3,13a.57.57,0,0,1-1,.34l-2-1.63a1,1,0,0,0-1.44.12l-50.63,57.56a.69.69,0,0,1-1.18-.1l-22-36.14a.79.79,0,0,0-1.25-.18l-13,11.9a1.22,1.22,0,0,1-1.52.06L129.36,79.45a1.21,1.21,0,0,0-1.52,0l-26.39,24.23a1,1,0,0,1-1.42,0l-1.8-1.93a1,1,0,0,1,0-1.41l29.34-26.95a1.22,1.22,0,0,1,1.52,0l19.24,15.27a1.22,1.22,0,0,0,1.52,0l14.21-13a.79.79,0,0,1,1.26.17L187,111.26a.69.69,0,0,0,1.18.1l46.34-52.69a1,1,0,0,0-.11-1.38Z"/><path class="cls-56" d="M232.73,55.72a.56.56,0,0,1,.14-1l11.79-5.21c.5-.22.81,0,.69.57l-2.88,12.47a.58.58,0,0,1-1,.35l-1.93-1.58a1,1,0,0,0-1.43.12l-50.6,57.52a.69.69,0,0,1-1.18-.1l-22-36.12a.8.8,0,0,0-1.26-.18l-13,11.94a1.2,1.2,0,0,1-1.52.05L129.36,79.24a1.2,1.2,0,0,0-1.52.06l-26.38,24.22a1,1,0,0,1-1.42-.06l-1.59-1.7a1,1,0,0,1,0-1.41L127.63,73.6a1.21,1.21,0,0,1,1.52-.06l19.23,15.27a1.2,1.2,0,0,0,1.52,0l14.18-13a.78.78,0,0,1,1.25.17L187,111.52a.7.7,0,0,0,1.18.1l46.6-53a1,1,0,0,0-.12-1.39Z"/><path class="cls-57" d="M233,55.76a.56.56,0,0,1,.14-1l11.28-5c.5-.22.81,0,.69.57l-2.76,11.93a.57.57,0,0,1-1,.34l-1.85-1.51a1,1,0,0,0-1.43.12l-50.56,57.47a.69.69,0,0,1-1.18-.1L164.4,82.46a.8.8,0,0,0-1.26-.18l-13,12a1.22,1.22,0,0,1-1.52,0L129.35,79a1.21,1.21,0,0,0-1.52.06l-26.36,24.2a1,1,0,0,1-1.42,0l-1.39-1.48a1,1,0,0,1,.06-1.41L127.64,73.8a1.21,1.21,0,0,1,1.52-.06L148.39,89a1.21,1.21,0,0,0,1.52-.05L164,76a.79.79,0,0,1,1.26.17L187,111.77a.69.69,0,0,0,1.18.11L235,58.64a1,1,0,0,0-.12-1.39Z"/><path class="cls-58" d="M233.31,55.79a.56.56,0,0,1,.14-1L244.22,50c.5-.22.81,0,.69.57L242.28,62a.57.57,0,0,1-1,.34l-1.77-1.44a1,1,0,0,0-1.44.12L187.56,118.4a.69.69,0,0,1-1.18-.1L164.43,82.22a.79.79,0,0,0-1.25-.18l-13.08,12a1.21,1.21,0,0,1-1.52.06L129.34,78.84a1.22,1.22,0,0,0-1.52,0l-26.34,24.19a1,1,0,0,1-1.42,0l-1.18-1.26a1,1,0,0,1,.06-1.4L127.65,74a1.2,1.2,0,0,1,1.52,0L148.4,89.22a1.21,1.21,0,0,0,1.52-.06L164,76.23a.78.78,0,0,1,1.25.17L186.93,112a.69.69,0,0,0,1.18.11l47.08-53.52a1,1,0,0,0-.12-1.38Z"/><path class="cls-59" d="M233.6,55.83a.56.56,0,0,1,.14-1L244,50.27c.51-.22.81,0,.69.57l-2.51,10.85a.56.56,0,0,1-1,.34l-1.7-1.39a1.07,1.07,0,0,0-1.44.12l-50.47,57.39a.7.7,0,0,1-1.18-.11L164.47,82a.8.8,0,0,0-1.26-.18l-13.12,12a1.21,1.21,0,0,1-1.52.06L129.33,78.64a1.21,1.21,0,0,0-1.52,0l-26.32,24.18a1,1,0,0,1-1.42-.06l-1-1a1,1,0,0,1,.05-1.41l28.5-26.17a1.21,1.21,0,0,1,1.52,0l19.24,15.27a1.21,1.21,0,0,0,1.52-.06l14-12.89a.79.79,0,0,1,1.26.17l21.68,35.65a.7.7,0,0,0,1.18.11l47.32-53.8a1,1,0,0,0-.12-1.38Z"/><path class="cls-60" d="M233.89,55.87l1.62,1.33a1,1,0,0,1,.12,1.38l-47.57,54.07a.69.69,0,0,1-1.18-.1L165.2,76.88a.79.79,0,0,0-1.26-.17l-14,12.86a1.22,1.22,0,0,1-1.52.05L129.18,74.35a1.22,1.22,0,0,0-1.52.05l-28.29,26a1,1,0,0,0-.05,1.41l.76.81a1,1,0,0,0,1.42.05l26.31-24.16a1.22,1.22,0,0,1,1.52-.06L148.56,93.7a1.2,1.2,0,0,0,1.52,0l13.17-12.09a.79.79,0,0,1,1.25.18l21.92,36a.69.69,0,0,0,1.18.11L238,60.55a1,1,0,0,1,1.43-.12l1.62,1.32a.57.57,0,0,0,1-.34l2.38-10.31c.12-.53-.18-.79-.69-.57L234,54.84A.56.56,0,0,0,233.89,55.87Z"/></g><rect class="cls-61" width="300" height="200"/><rect class="cls-62" width="300" height="200"/><g class="cls-63"><polygon class="cls-64" points="76.75 176.58 76.75 144.82 36.72 200.81 76.32 176.84 76.75 176.58"/><polygon class="cls-65" points="116.79 200.81 76.75 144.82 76.75 176.58 77.19 176.84 116.79 200.81"/><polygon class="cls-66" points="76.75 209.84 116.79 209.4 76.75 208.96 76.75 209.84"/><polygon class="cls-67" points="36.72 209.4 76.75 209.84 76.75 208.96 36.72 209.4"/><polygon class="cls-68" points="77.19 176.84 76.75 144.82 76.32 176.84 76.75 176.58 77.19 176.84"/></g><path class="cls-69" d="M141.75,144.58c0,3.76-29,6.8-64.83,6.8s-64.84-3-64.84-6.8,29-6.79,64.84-6.79S141.75,140.83,141.75,144.58Z"/><polygon class="cls-70" points="76.75 15.56 36.72 80.31 76.75 80.31 76.75 15.56"/><polygon class="cls-71" points="76.75 104.29 36.72 80.31 76.75 80.31 76.75 104.29"/><polygon class="cls-72" points="76.75 113.13 76.75 144.89 36.72 88.9 76.32 112.86 76.75 113.13"/><polygon class="cls-73" points="76.75 15.56 116.79 80.31 76.75 80.31 76.75 15.56"/><polygon class="cls-74" points="76.75 104.29 116.79 80.31 76.75 80.31 76.75 104.29"/><polygon class="cls-75" points="116.79 88.9 76.75 144.89 76.75 113.13 77.19 112.86 116.79 88.9"/><polygon class="cls-66" points="76.75 79.87 116.79 80.31 76.75 80.75 76.75 79.87"/><polygon class="cls-67" points="36.72 80.31 76.75 79.87 76.75 80.75 36.72 80.31"/><path class="cls-68" d="M76.75,15.56,77,59.92Q77,65.47,77.12,71t0,11.1c-.07,7.39-.15,14.78-.41,22.18-.26-7.4-.34-14.79-.4-22.18q0-5.55,0-11.1t.14-11.09Z"/><polygon class="cls-68" points="77.19 112.86 76.75 144.89 76.32 112.86 76.75 113.13 77.19 112.86"/><rect class="cls-76" width="300" height="200"/><rect class="cls-77" width="300" height="200"/></g></g></svg>